<?xml version="1.0" encoding="utf-8"?>
<!-- Generator: Adobe Illustrator 16.0.0, SVG Export Plug-In . SVG Version: 6.00 Build 0)  -->
<!DOCTYPE svg PUBLIC "-//W3C//DTD SVG 1.1//EN" "http://www.w3.org/Graphics/SVG/1.1/DTD/svg11.dtd">
<svg version="1.1" id="Layer_1" xmlns="http://www.w3.org/2000/svg" xmlns:xlink="http://www.w3.org/1999/xlink" x="0px" y="0px"
	 width="1622px" height="826.1px" viewBox="0 0 1622 826.1" enable-background="new 0 0 1622 826.1" xml:space="preserve">
<path fill="#666666" stroke="#FF1D25" stroke-width="3" d="M1282.8,691.6c-1.8-0.8-3.9-1.2-5.4-0.4c0,0,0-4.7-1.5-7.3
	c-1.5-2.6-1-3.1,2.5-2.6c3.5,0.5,1.5-3.6-1-5.2c-2.5-1.6-10-6.8-12-9.3c-2-2.6-3-2.1-5,0c-2,2.1-4-2.6-4-2.6l-3.5-5.7l-5.5-3.1
	c0,0-1-3.6-2.5-6.2c-1.5-2.6,0-3.6,1-5.7s5-4.7,7-6.8s-1-5.2-3-8.3c-2-3.1-1.5-5.7-2-9.3c-0.5-3.6,0.5-2.6,5-2.6s-1-4.7-1-4.7
	s-2.5-2.1-3-4.7c-0.5-2.6-2-3.1-4.5-4.2s-1.5-2.6,0-5.7c1.5-3.1,1.5-4.1-2.5-6.2s-2.5,2.1-4,5.2c-1.5,3.1-5,2.1-6-0.5
	c-1-2.6-4-6.2-4-6.2l-3-5.2c0,0,0-3.6-0.5-6.2c-0.5-2.6-3.5-9.9-3.5-9.9s-5-0.5-8.7-1l2.7-0.1l1-4.7c0,0,5-3.6,0.5-5.2
	c-4.5-1.6-7.5-2.6-8-4.7s-1-3.6,2-3.6s5-1,5-1s2.5-2.6,4.5-4.2c2-1.6,6-2.6,8.5,0c2.5,2.6,6,5.2,6,5.2l3,3.6l3.5-2.6
	c0,0,1-3.6,4.5-3.1c3.5,0.5,4.5-0.5,4.5-3.6c0-3.1,1-2.6-1.5-5.2c-2.5-2.6-3-4.2-6-3.6c-3,0.5-2.5,2.6-5,0c-2.5-2.6-5-3.6-8-3.1
	c-3,0.5-7,0.5-7.5-2.6c-0.5-3.1-1.5-3.6-3.5-5.2c-2-1.5-0.5-5.7,2.5-7.8c3-2.1,5-6.2,5-6.2s0-2.1-4-3.6c-4-1.6-3.5-2.6-4.5-4.7
	c-1-2.1-5-6.8-1.5-9.9c3.5-3.1,4-5.2,4-5.2s0-3.1-4-3.6c-4-0.5-4-2.6-4-4.7c0-2.1,0.5-3.1,3.5-3.6c3-0.5,6-1,6-4.2
	c0-3.1-2.5-6.2-0.5-8.3c2-2.1,2.5-4.7,2.5-7.3c0-2.6-0.5-10.9,1.5-13.5c2-2.6,2-6.8,4.5-8.8s1-2.6,1-5.2c0-2.6,1-5.2,3-5.2
	s4-0.5,4.5-3.1c0.5-2.6,5.5-7.8,5.5-7.8s3.5-0.5,6.5-1c3-0.5,8.5-2.1,8.5-6.2c0-4.1,0-7.8,0-7.8s-0.5-1.6-2-3.6
	c-1.5-2.1-4.5-2.6-4.5-2.6s2-1.6,2-4.7c0-3.1-2-2.1-2-5.7c0-3.6-1.5-3.6,1-5.2s10-8.3,10-8.3s1.5-3.1,2-5.7c0.5-2.6,2-7.3,1-9.9
	c-1-2.6-1.5-6.2-1.5-6.2l4.5-6.2l2.5-9.3c0,0,0,0,0,0c0.9-0.4,1.6-0.5,2.1-0.3c0.4,0.1,0.7,0.4,1,0.7c0.1,0.2,0.2,0.3,0.3,0.5
	c0.1,0.2,0.2,0.4,0.3,0.6c0.2,0.7,0.3,1.4,0.3,2c0,2.1,2.5,8.8,3,10.9c0,0.1,0,0.1,0.1,0.2c0.3,0.7,0.9,1.2,1.8,1.3
	c0.1,0,0.3,0,0.4,0.1c0.9,0.1,2-0.1,3.1-0.4c0.5-0.2,1.1-0.4,1.6-0.7c3-1.6,7.5-5.7,7.5-5.7s2.9-3,5.3-2.4c0.2,0.1,0.5,0.2,0.7,0.3
	c0.8,0.5,1.3,0.9,1.8,1.2c0.1,0.1,0.2,0.2,0.4,0.2c0.1,0,0.1,0.1,0.2,0.1c0.1,0,0.1,0.1,0.2,0.1c0.5,0.2,1.1,0.2,2.2,0.1
	c0.2,0,0.4,0,0.6-0.1c0,0,0,0,0,0c0.2,0,0.4,0,0.7-0.1c2.1-0.3,3.3-0.3,4.2,0.1c0.6,0.2,1.2,0.5,1.9,0.9c0.2,0.1,0.3,0.2,0.5,0.3
	c0.1,0.1,0.2,0.1,0.3,0.2c1.7,1,4.3,0.9,6.4,0.3c1-0.3,2-0.8,2.6-1.3c1.5-1.1,2.7-2.3,4.2-2c0,0,0.1,0,0.1,0c0.1,0,0.1,0,0.2,0.1
	c0.2,0.1,0.4,0.1,0.6,0.2c0.2,0.1,0.4,0.2,0.6,0.4c0.1,0.1,0.2,0.2,0.3,0.3c1.1,0.9,1.8,1.1,2.5,1c0.1,0,0.2-0.1,0.3-0.1
	c0.3-0.1,0.6-0.3,1-0.5c0.1-0.1,0.3-0.2,0.4-0.3c0,0,0,0,0,0c0.4-0.2,0.8-0.4,1.3-0.6c0.6-0.2,1-0.4,1.3-0.6c0,0,0,0,0,0
	c0.4-0.2,0.7-0.3,1-0.2c0.4,0.2,1,0.7,2.3,1.8c0.6,0.5,1.1,1,1.5,1.4c1.8,2,2.5,3.7,2.5,5.9c0,1.2,0.1,2.1,0.6,2.6
	c0.4,0.5,1.1,0.7,2.2,0.6c0.3,0,0.7,0,1.2-0.1c0.4-0.1,0.8-0.1,1.2-0.2c1.3-0.2,2.2-0.2,3,0.1c0.4,0.1,0.8,0.4,1.1,0.8
	c0.1,0.1,0.1,0.1,0.2,0.2c0.2,0.2,0.4,0.4,0.5,0.7c0.5,0.7,1,1.1,1.6,1.3c1.1,0.4,2.3,0.1,3.9-0.3c1.9-0.4,3.9-2.4,5.1-2
	c0.2,0.1,0.4,0.2,0.5,0.3c0.1,0.1,0.2,0.2,0.3,0.4c0,0.1,0.1,0.2,0.1,0.3l0,0c0.9,2.3,1,4.5,2.3,6.5c0,0,0,0,0,0
	c0.2,0.3,0.4,0.5,0.6,0.8c1.5,1.6,3.6,1.9,6,1.2c0.8-0.3,1.7-0.6,2.5-1.2c0.6-0.4,1.3-0.8,2-1.2c0,0,0,0,0,0c0.5-0.3,1.1-0.6,1.6-1
	s1.1-0.6,1.6-0.9c0.4-0.2,0.7-0.3,1-0.4c1.3-0.5,2.3-0.6,2.8,0c0.3,0.3,0.4,0.7,0.4,1.4c0,1.4-0.2,2.5-0.4,3.6
	c-0.3,1.5-0.7,2.8-0.3,4c0.1,0.4,0.4,0.8,0.7,1.3c0.3,0.3,0.4,0.7,0.6,1.1c1,2.7-0.6,6.7-0.6,6.7l-7.5,17.1c0,0,0,5.7,0,8.8
	c0,3.1,1,6.8,2.5,8.8c1.5,2.1,0.5,6.8,0,8.8c-0.3,1.2-0.9,2.8-2.3,3.7c0,0,0,0,0,0c-0.2,0.2-0.5,0.3-0.8,0.4c-0.8,0.3-1.8,0.4-3,0
	c-0.7-0.2-1.3-0.4-2-0.6c-0.2-0.1-0.4-0.1-0.6-0.2c-0.1,0-0.2,0-0.3-0.1c-0.9-0.3-1.7-0.5-2.4-0.6c0,0-0.1,0-0.1,0
	c-1.3-0.2-2.2,0-2.7,1c-0.1,0.3-0.3,0.6-0.5,0.9c-0.1,0.1-0.1,0.2-0.2,0.3c-0.2,0.3-0.4,0.5-0.6,0.7c-0.3,0.3-0.6,0.5-0.9,0.7
	c-0.2,0.1-0.3,0.2-0.5,0.2c-0.1,0-0.2,0.1-0.3,0.1c-0.2,0-0.3,0.1-0.5,0.1c-0.5,0-1-0.1-1.5-0.3c-1.5-0.7-3.1-1.3-4.3-0.9
	c-0.1,0-0.1,0-0.2,0.1c-0.1,0-0.2,0.1-0.3,0.2c-0.5,0.3-0.9,0.9-1.2,1.7c-0.3,0.8-0.5,1.6-0.8,2.3c0,0,0,0,0,0
	c-0.9,2.3-2.2,4.3-3.7,5.5c-0.5,0.4-0.9,0.9-1.2,1.6c-0.1,0.1-0.2,0.3-0.2,0.5c-0.8,1.7-1,3.7-1,3.7l-1.5,9.9h0l7.5,4.7c0,0,0,0,0,0
	c0,0,0,0,0.1,0c0.1,0,0.2,0.1,0.5,0.3c0.1,0,0.2,0.1,0.3,0.2c1.4,0.7,4.4,2.1,7.6,3.2c3.1,1.1,5.5,2.4,7.2,3.8
	c0.3,0.3,0.6,0.5,0.8,0.8c0.4,0.4,0.7,0.8,1,1.2c0.4,0.5,0.8,1,1.2,1.4c0.8,0.8,1.8,1.4,3,1.8c0.4,0.1,0.8,0.2,1.2,0.3
	c0.2,0,0.4,0.1,0.7,0.1c0.6,0.1,1,0.3,1.3,0.7c0.2,0.2,0.3,0.4,0.5,0.7c0.4,0.9,0.4,2,0.4,2.8c0,0,0,0,0,0c-0.1,0.6-0.1,1-0.1,1
	s0,0.2-0.1,0.4c0,0,0,0,0,0c-0.1,0.6-0.2,1.7,0.2,2.6c0.2,0.6,0.6,1.2,1.3,1.4c0.3,0.1,0.7,0.2,1.1,0.2c0.9,0,1.6,0.1,2.2,0.3
	c0.4,0.1,0.7,0.3,1,0.5c0.3,0.2,0.5,0.4,0.7,0.6c0.1,0.1,0.2,0.2,0.3,0.3c0.4,0.6,0.8,1.2,1.1,2c0.1,0.2,0.1,0.3,0.2,0.5
	c0.3,0.8,0.7,1.5,1.1,1.9c0.8,0.8,1.8,0.8,3.1-0.5c0.3-0.2,0.5-0.5,0.8-0.9c0.1-0.1,0.2-0.2,0.2-0.3s0.2-0.2,0.2-0.2
	c0.7-0.6,1.3-0.7,1.8-0.5c0.3,0.1,0.6,0.2,0.9,0.4c0.1,0.1,0.3,0.1,0.4,0.2c0.3,0.1,0.6,0.3,0.9,0.3c0.2,0,0.3,0.1,0.5,0.1
	c0.6,0.1,1.3,0.1,2-0.1c0.2,0,0.4-0.1,0.6-0.2c0.1,0,0.2-0.1,0.3-0.1c0.3-0.2,0.7-0.3,1-0.4c2-0.6,4.1-0.6,6.2-0.2
	c0.1,0,0.2,0,0.3,0c1,0.2,1.9,0.5,2.9,0.8c1.4,0.4,2.8,0.9,4.1,1.3c2,0.6,3.8,1.7,5,2.9c0.2,0.1,0.3,0.3,0.5,0.5
	c0.7,0.8,1.2,1.6,1.4,2.4c0.3,0.9,0.2,1.8-0.4,2.6c-1.2,1.6-1.7,3.3-1.1,4.8c0.4,1,1.2,1.8,2.6,2.4c0.6,0.3,1.1,0.6,1.5,1
	c1.7,1.7,0.9,4.1,0.5,5.8c-0.1,0.6-0.1,1,0,1.4l0,0c0.1,0.1,0.1,0.2,0.3,0.3c0.6,0.6,1.7,0.8,3.2,1.4c0.3,0.1,0.5,0.2,0.7,0.3
	c0.3,0.1,0.5,0.1,0.7,0.2c1,0.2,1.7-0.1,2.5-0.9c0.5-0.5,1-1.2,1.6-2.2c0.6-0.9,1.1-1.6,1.6-2.1c1.4-1.4,3-1.7,5.8-1
	c2.5,0.7,4,0.9,4.9,1.8c0.5,0.5,0.9,1.2,1.1,2.4c0.2,1,0.6,1.8,1.1,2.5c0.4,0.4,0.8,0.7,1.2,0.9c0.8,0.3,1.8,0.2,2.9-0.6
	c0.3-0.2,0.6-0.4,0.8-0.7c0.1-0.1,0.3-0.3,0.4-0.5c0.2-0.3,0.4-0.5,0.7-0.7c0.1-0.1,0.2-0.2,0.3-0.3c0.2-0.2,0.5-0.5,0.7-0.6
	c1-0.8,2-1.4,2.9-1.7c0,0,0,0,0,0c0.6-0.2,1.1-0.2,1.6-0.1c0.4,0.1,0.6,0.3,0.9,0.6c0.1,0.1,0.2,0.3,0.3,0.5
	c0.2,0.6,0.3,1.3,0.2,2.3c0,0.2,0,0.4,0,0.5c0,0.3,0,0.7-0.1,1c-0.1,1.9-0.1,3.1,0.1,4c0,0.2,0.1,0.4,0.2,0.6
	c0.1,0.2,0.1,0.4,0.2,0.6c0.2,0.4,0.3,0.7,0.6,1.2c0.1,0.2,0.2,0.4,0.4,0.6c0.1,0.1,0.1,0.2,0.2,0.3c0.3,0.5,0.6,0.9,0.9,1.2
	c0.2,0.2,0.4,0.3,0.6,0.4c0.1,0.1,0.3,0.2,0.4,0.2c0.7,0.2,1.5,0.1,2.5-0.4c0.6-0.3,1.3-0.8,2.1-1.5c2.5-2.2,6.9-5.2,8.2-3.8
	c0.2,0.3,0.3,0.6,0.3,1.2c0,0.7,0.1,1.3,0.3,1.8c0.1,0.2,0.1,0.3,0.2,0.5c0,0.1,0.1,0.1,0.1,0.2c0.1,0.1,0.1,0.1,0.2,0.2
	c0.2,0.2,0.5,0.4,0.8,0.4c0.8,0.2,2,0,3.4-0.4c0.2,0,0.3-0.1,0.5-0.1c0.4-0.1,0.9-0.3,1.3-0.5c0.5-0.2,0.9-0.5,1.3-0.7
	c0.2-0.1,0.5-0.3,0.7-0.4c0.5-0.3,0.9-0.6,1.3-0.9c0,0,0,0,0,0c1.9-1.4,3.7-2.8,4.8-3.1c0.1,0,0.2,0,0.2,0c0,0,0,0,0,0
	c0.4,0,0.8,0,1.4,0.1c1.2,0.2,2.6,0.6,4,1.2c0.2,0.1,0.4,0.1,0.5,0.2c1.3,0.6,2.4,1.2,2.9,1.9c0.3,0.5,0.4,0.9,0,1.3
	c-1.5,1.6-3.1,3.2-1.4,5c0.5,0.6,1.3,1.1,2.4,1.7c1.7,0.9,3,1.7,3.9,2.5c0.1,0.1,0.2,0.2,0.2,0.2c0.1,0.1,0.1,0.1,0.2,0.2
	c0.8,0.8,1.2,1.6,1.5,2.4c0,0.2,0.1,0.3,0.1,0.5c0.1,0.5,0.1,0.9,0.1,1.4s0.1,1,0.3,1.5c0.1,0.2,0.1,0.3,0.2,0.5
	c0.2,0.3,0.3,0.7,0.5,1c0.2,0.3,0.5,0.6,0.7,0.9c0.1,0.2,0.3,0.3,0.4,0.4c0.9,1,2,1.7,2.8,1.9c1.5,0.4,3.2,1.3,4.8,0.8
	c0.2-0.1,0.5-0.2,0.7-0.3c0,0,0,0,0,0c0.2-0.2,0.4-0.3,0.7-0.6c0.1-0.1,0.2-0.2,0.3-0.4c0.8-1,1.5-1.8,2.2-2.2h0
	c0.2-0.1,0.3-0.2,0.5-0.3c1-0.5,2-0.4,3.4,0.4c2.5,1.6,4,1.6,7.5,1.6c0.2,0,0.4,0,0.6,0c0.2,0,0.4,0,0.5,0c0.1,0,0.2,0,0.3,0
	c0.1,0,0.3,0,0.4,0c0.9,0.1,1.5,0.4,2,0.9c0.1,0.1,0.2,0.2,0.2,0.3c0.4,0.5,0.8,1.1,1.5,1.9c0.3,0.3,0.5,0.7,0.8,1
	c0.4,0.5,0.8,0.9,1.3,1.3c0.1,0.1,0.3,0.3,0.4,0.4c0.3,0.3,0.6,0.6,0.9,0.8c1.1,1.1,2.1,2.1,2.6,3.2l-4.5,3.1c0,0,0,4.1,1,7.3
	c0.1,0.2,0.1,0.4,0.2,0.6c0,0.1,0,0.1,0,0.2c0.4,2.5-1.7,3.6-2.2,6.5c-0.5,3.1-7,8.3-11,10.4s-10,9.9-10,9.9s-4.5,7.8-10.5,7.3
	c-6-0.5-4.5,0.5-6.5,2.6c-1.7,1.7-2.6,2.4-5.5,1.3c-0.6-0.2-1.2-0.5-2-0.8c-0.3-0.1-0.6-0.3-0.9-0.3c-3.5-1.2-2.7,2.6-4.1,5.5
	c-1.5,3.1-1.5,6.8-1,13.5c0.1,1.6,0.3,3.1,0.6,4.5c0.1,0.4,0.2,0.9,0.3,1.3c0.3,1.4,0.7,2.6,1.1,3.7c0.7,1.9,1.4,3.4,2.1,4.6
	c0.2,0.4,0.4,0.7,0.5,1.1c0.7,2.2-0.1,4.5-1,6.7c0,0.1-0.1,0.2-0.1,0.4c0,0.1,0,0.1,0,0.2c-0.3,2.6,3.6,6.2,3.6,6.2s3,3.1,6,4.7
	c3,1.6,3.5-1,3.5-4.1c0-3.1,3.5-3.1,3.5-3.1s3.5,3.1,4,6.2c0.5,3.1,4.5,3.6,5.5-0.5c1-4.2,3.5-0.5,6,2.1c2.5,2.6,3,3.1,2.5,7.8
	c-0.5,4.7-4.3,4-4.3,4c-1,1.3-1.3,1.3-1.4,2.8l0.7,1.3l0.5,0.2l-0.1,1.4c1.5,2.9,3,5.3,4.9,7.9c3.4,4.8,4.7,5.7,3.1,12
	c0.5,1.3,2.4,3.6,3.8,4.1c4.8,1.8,9.3,3.6,14,5.7c0.5,1.1,0.5,3.2,0.5,4.4l0.6,0.5c12.8,0.7,5.4,3.3,13.7,9.1
	c4.5,3.1,6.7,3.7,11.6,5.6c2.3,0.9,4.6,1.7,7,2.9l3.2,1.2l0.2,1.1l7.2,2.3l0.9,1.8l0.9,0.1l0.3-2.4l0.8-0.6l1,1.8l-0.9,2.5l0.8,0.9
	l1,0.2c0.9-0.4,1.8-2.3,2.4-3.1l0,1.5l-1.2,1.9l2.1,1.3c0.2-0.5,0.7-2.2,1.1-2.5l1.9,2.6l-1.6,2.9l-2.4,0l-0.9,1.4
	c0.4,0.3,0.9,0.6,1.3,0.9l1.7-0.1l1.5,1.8l1.8-3.4l-0.4-1.9l0.4-0.7l1.4,0.3c1,1.3,0.3,4.3,0.1,5.8l-0.8,0.4l-0.2,0.6l0.9,0.6
	l1.3-1.1l0.9,0.9l-0.7,3l0.5,0.8l0.8-0.6l1,0.7l1.3-0.3l0.6-0.8l1.3,0.4c0.2,0.4,0.3,0.7,0.4,1.1c-0.1,0.5-0.5,1-0.7,1.4
	c0,0.2,0.7,1.9,0.9,2.3l-0.5,1.8c0.5,1.9,2.2,2.7,2.8,4.5l-0.8,1.6l0.3,0.6c0.4,0.1,3.4,0.6,3.6,0.7c2.3,1.2,1.8,1.4,4.5,1.9
	l0.8,0.8l-1,2.4l-1.3,0.2l-1-1.7c-1.9,2.6-3.1,5.5-5.3,7.8l1.1,2.4l-1.5,5.3c-1.1,1.3-2.7,1.7-4.2,2.1c-0.3,1.3-0.4,1.8-0.7,2.2
	c-0.3,0.4-0.6,0.8-1.5,1.8c0,0.1,0.2,1,0.2,1.2c-1.2,0.4-2.5,2-2.8,3.2c0.6,3.2,0.3,3.6,2.3,6.3c-0.7,1.8-0.6,3-0.6,5l-2,1.8
	c-0.9,3.8-0.2,7.8,0.1,11.7l-1.6,2.5l0,2.7c-1.6,1.7-1.3,0.9-1.9,3.1h0c-1.3,0.5-1.9,1.3-3.4,1.2c-1.1-0.6-1.9-1.3-2.6-1.9
	c-1.1-1.1-1.7-2.1-2.6-3c-0.1-0.1-0.3-0.3-0.5-0.4l0,0c-0.3-0.2-0.5-0.4-0.9-0.5c0,0,0,0,0,0c-0.2-0.1-0.5-0.2-0.7-0.3
	c-0.8-0.3-1.8-0.5-3.1-0.6c-0.9-0.1-1.9-0.3-2.7,0.4c-2.7,2.5-4.6,6.2-6.7,9.5c0,0,0,0,0,0c-0.5,0.8-1,1.5-1.5,2.2
	c-0.2,0.3-0.5,0.6-0.7,1c-0.2,0.2-0.3,0.4-0.4,0.7c0,0,0,0,0,0c-0.1,0.2-0.3,0.5-0.4,0.7c0,0,0,0,0,0c-0.1,0.3-0.3,0.5-0.4,0.8
	c0,0,0,0,0,0c-0.2,0.3-0.3,0.5-0.4,0.8c0,0,0,0,0,0c-0.2,0.4-0.4,0.8-0.7,1.2c-0.1,0.1-0.2,0.3-0.2,0.4c-0.3,0.5-0.6,1-0.9,1.4
	c0,0,0,0,0,0c-1.2,1.7-2.4,2.9-3.9,2.4c-1-0.4-2.2-1.5-3.4-3.8c-0.5-0.9-0.9-1.7-1.3-2.6c-0.2-0.5-0.4-1-0.7-1.5
	c0-0.1-0.1-0.1-0.1-0.2c-0.3-0.8-0.7-1.6-1.1-2.4c0-0.1-0.1-0.2-0.2-0.3c0,0,0-0.1,0-0.1c-0.3-0.6-0.6-1.4-0.9-2
	c-0.1-0.3-0.3-0.5-0.5-0.7c-0.1-0.1-0.2-0.3-0.3-0.4c-0.5-0.5-1.1-0.9-1.8-1.2l0,0c-4-1.7-11.3-1-13.9-0.7c-2.5,0.3-4.9,1.8-7.6,2.8
	l0,0l-0.6-0.8l-4.3-1.2l-0.6-2.4l-0.8-0.8l-1.6,0.7l-0.7-2l-1.9-0.2c-0.3-1-1.1-2.5-1.9-3.1l-2.1,0l0.5-1l-0.3-0.7l-2.2,0.7
	l-1.5-3.6l-0.8,0.1l-1.3,1.1l-4.1-4.3l-0.4-2.8l-1,0.5l-0.5-2l-1.2,0l-0.3-0.6l0.6-1.2l-0.9-1.3l0.6-1.5l-0.7-0.9l-1.3,0
	c-0.2,0.1-0.4,0.3-0.4,0.5c-3.6,1.1-7.9-2-11.6-2.8c-0.1,0-0.3-0.1-0.4-0.1c-0.6-0.1-1.2-0.2-1.7-0.1l-8.7,0.6
	c-0.3-0.1-0.6-0.3-0.9-0.4c0,0,0,0,0,0c-0.2-0.1-0.3-0.2-0.5-0.3c-0.1-0.1-0.2-0.1-0.3-0.2c-1.3-1-2.7-2.5-3.8-3.9
	c-0.8-0.9-1.5-1.8-2-2.3l0,0l-4.5,1.2l-1.7,6.4l-3.3,1.9c-5.6-2.6-7.2-1.6-13.1-1.7c-1.8,0-3.6-0.6-5.4-0.6c-2.1,0-4.8,1.3-7,1.5
	c-2,0.1-4.3-0.4-6.3-0.5l-1.5-0.1c-2-0.9-3.5-1.8-4.8-2.8c-0.7-0.5-1.3-1-1.9-1.6c-0.4-0.3-0.8-0.7-1.2-1.1c0,0,0,0,0,0
	c-1-0.9-2.1-1.8-3.4-2.8c-0.2-0.2-0.5-0.4-0.8-0.5c0,0,0,0,0,0c-0.5-0.3-1.1-0.7-1.7-1c-0.3-0.2-0.6-0.3-0.9-0.5
	c-0.6-0.3-1.2-0.6-1.8-0.9c0,0,0,0,0,0c-0.6-0.3-1.2-0.6-1.7-0.8c-7.3-3.4-8.8-0.7-15-2.6c-0.9-0.3-1.7-0.6-2.4-0.9
	c-0.1-0.1-0.2-0.1-0.3-0.2c-0.4-0.2-0.8-0.4-1.2-0.6c0,0,0,0,0,0c-1-0.6-1.7-1.3-2.6-1.9c0,0,0,0,0,0c-0.5-0.4-1-0.8-1.6-1.2
	c-0.4-0.3-0.8-0.5-1.3-0.8c-0.4-0.2-0.8-0.5-1.3-0.7c-0.4-0.2-0.9-0.5-1.3-0.7c0,0,0,0,0,0c-0.4-0.2-0.9-0.4-1.3-0.6
	c-0.4-0.2-0.9-0.4-1.3-0.7l-0.6-0.4c-1.2-0.8-2.7-1.6-4.1-2.6c-0.3-0.2-0.5-0.4-0.8-0.6c-0.3-0.2-0.5-0.4-0.7-0.6
	c-0.2-0.2-0.4-0.4-0.6-0.6v0c-0.3-0.3-0.7-0.8-1.2-1.4c-0.3-0.4-0.6-0.8-0.9-1.3c-0.2-0.3-0.5-0.6-0.7-1c-1-1.4-2.1-3-3.1-4.6
	c-0.2-0.3-0.5-0.7-0.7-1c-0.7-1.1-1.4-2.2-2-3.2c-0.3-0.4-0.5-0.8-0.7-1.2c-0.2-0.4-0.4-0.7-0.5-1c-0.1-0.4,0-1,0.2-1.5
	c0-0.1,0.1-0.2,0.1-0.3c0.1-0.3,0.3-0.5,0.4-0.7l1.3-0.3c0.6-0.8,1.1-1.6,1.5-2.5c0,0,0,0,0,0c1.4-2.5,2.5-4.8,5.8-5.4
	c1.5-0.3,3.6,0.2,4.9-0.6l0.5-0.9c0-0.1,0-0.2-0.1-0.3c-0.1-0.4-0.5-0.9-1-1.5c-0.1-0.1-0.3-0.3-0.4-0.4c0,0,0,0,0,0
	c-0.6-0.6-1.2-1.3-1.8-1.9c-0.3-0.3-0.6-0.6-0.9-0.9c0,0,0,0,0,0c-0.2-0.2-0.4-0.4-0.6-0.6c-0.1-0.1-0.2-0.3-0.3-0.4
	c-0.1-0.2-0.3-0.3-0.4-0.4v0l-1.4-0.1l-5.1,3.2c-8.4,0.1-8.3-9.4-22-4c-1-0.3-2-0.6-2.9-1c-1.2-0.6-2.2-1.3-3.2-2.3
	c-0.2-0.3-0.4-0.5-0.6-0.8c-0.2-1.8-0.5-3.1-1-4.4c0-0.1-0.1-0.3-0.1-0.4c0-0.1-0.1-0.3-0.1-0.4c-0.1-0.3-0.2-0.6-0.3-0.9
	c-0.1-0.5-0.3-0.9-0.4-1.4c0,0,0,0,0,0c-0.6-0.4-1.2-0.7-1.8-1c-0.6-0.3-1.2-0.5-1.9-0.8c0,0,0,0,0,0c-1.3-0.5-2.7-0.8-4.1-1.1
	c-0.7-0.2-1.4-0.3-2.1-0.5c-2.1-0.5-4.2-1-6-1.8c-0.5-0.2-0.9-0.4-1.3-0.7c-1.5-1-2.5-2.2-3.4-3.5c-0.2-0.2-0.3-0.5-0.5-0.7
	c-1.2-1.5-2.4-2.8-4.4-3.5c-0.5-0.2-1-0.3-1.5-0.4c-1-0.2-2,0.2-3-0.3c0,0.1-0.1,0.1-0.2,0.2c0,0,0,0,0,0c-0.2,0.3-0.5,0.6-0.8,1
	c0,0,0,0,0,0c-0.6,0.8-1.3,1.7-2.1,2.6c0,0,0,0,0,0c-2.3,2.6-5.2,5.1-7.8,3.8l-4-2.6c-0.3-0.2-0.6-0.4-0.9-0.6c0,0,0,0,0,0
	c-2.2-1.4-4.5-2.9-6.3-4.6l0,0c-0.2-0.1-0.3-0.3-0.5-0.5c-0.3-0.3-0.6-0.6-0.8-0.9c-0.1-0.2-0.3-0.4-0.4-0.5c-0.3-0.3-0.5-0.7-0.8-1
	c-0.1-0.2-0.3-0.3-0.4-0.5c-0.1-0.2-0.3-0.3-0.5-0.5c-0.1-0.1-0.2-0.1-0.3-0.2c0,0,0,0,0,0c-0.2-0.1-0.4-0.3-0.6-0.4l0,0
	c-0.2-0.1-0.4-0.3-0.6-0.4l0,0C1283.3,691.9,1283.1,691.7,1282.8,691.6C1282.8,691.6,1282.8,691.6,1282.8,691.6z"/>
<path fill="#666666" stroke="#FF1D25" stroke-width="3" d="M1045.2,346.2L1045.2,346.2l-0.5-6.3c0,0-4.5-2.1-6-3.1
	c-1.5-1-2.5-0.5-2.5-2.3s0.3-3.4-1.3-4.9s-3-4.7-4.8-6c-1.8-1.3-5.8-2.3-5.8-2.3s-1,2.9-2.3,3.4c-1.3,0.5-1.5-3.9-3.5-3.9
	s-4-1.3-3-2.6c1-1.3,3.3-4.9,3.3-4.9l-3.2-2.3h0l1.8-2.6c0,0,2-5.7,2.3-6.8c0-0.1,0.1-0.3,0.1-0.5c0,0,0,0,0,0
	c0-0.2,0.1-0.4,0.1-0.6c0-0.1,0-0.2,0.1-0.3c0.2-0.8,0.4-1.7,0.7-2.4c0.1-0.2,0.2-0.4,0.3-0.5c0.1-0.1,0.3-0.3,0.4-0.4
	c0.2-0.1,0.5-0.4,0.8-0.7c0,0,0,0,0,0c0.1-0.1,0.3-0.3,0.5-0.4c0.1-0.1,0.2-0.1,0.3-0.2c0.2-0.1,0.3-0.3,0.5-0.5c0,0,0,0,0,0
	c0.2-0.2,0.4-0.3,0.6-0.5c0.1-0.1,0.2-0.2,0.3-0.3c0.8-0.7,1.6-1.5,2.4-2.2c0,0,0,0,0,0c0.2-0.2,0.4-0.3,0.5-0.5c0,0,0,0,0,0
	c0.5-0.5,1-0.9,1.4-1.2c0.1-0.1,0.2-0.2,0.3-0.2c0.1,0,0.1-0.1,0.1-0.1c0.3-0.2,0.8-0.5,1.5-0.9c0.4-0.2,0.8-0.5,1.2-0.7
	c0.4-0.2,0.9-0.5,1.3-0.7c0.3-0.1,0.5-0.3,0.7-0.4c0.1-0.1,0.3-0.1,0.4-0.2c0.1-0.1,0.3-0.1,0.3-0.2c0.1-0.1,0.2-0.1,0.3-0.2
	c0.2-0.1,0.3-0.2,0.3-0.2c0,0,0,0,0,0l2.5-4.9h3c0,0,0,0,0,0c0,0,0,0,0,0c0,0,0.1,0,0.1,0c0,0,0,0,0.1,0c0.9,0.2,3.8,1,5.5,1
	c0.3,0,0.8,0.1,1.3,0.3c0.6,0.2,1.2,0.4,1.9,0.7c0.4,0.2,0.8,0.4,1.3,0.6l0,0c0.8,0.4,1.7,0.8,2.5,1.2c0,0,0,0,0,0
	c0.4,0.2,0.8,0.4,1.1,0.6c1.1,0.6,1.9,1,1.9,1c0,0,0,0,0,0l4-4.4c0,0,0,0,0,0c0,0,0,0,0,0c0,0,0.1,0,0.2,0.1c0,0,0.1,0,0.1,0
	c0.4,0.1,1.1,0.4,1.9,0.6c0.1,0,0.2,0.1,0.3,0.1c0.3,0.1,0.5,0.2,0.8,0.3c0.5,0.2,1,0.3,1.4,0.5c0.1,0,0.3,0.1,0.4,0.1
	c0.6,0.2,1.1,0.3,1.3,0.4c1.3,0.3,7.3,1,9,1c0.2,0,0.6,0.1,1,0.2c0.1,0,0.3,0.1,0.5,0.1c0.1,0,0.3,0.1,0.4,0.1
	c0.2,0.1,0.4,0.2,0.7,0.3c2.8,1.1,6.5,3.1,6.5,3.1s-0.3-0.5-0.6-1.4c-0.3-0.9-0.7-2.2-0.9-3.8c-0.1-0.7-0.3-1.3-0.4-1.8
	c-0.1-0.3-0.2-0.6-0.3-0.8c-0.1-0.2-0.2-0.4-0.3-0.6c-0.2-0.3-0.4-0.5-0.6-0.8c-0.1-0.1-0.2-0.3-0.3-0.4c-0.1-0.1-0.2-0.3-0.3-0.4
	c-0.1-0.2-0.3-0.4-0.5-0.7c-0.3-0.6-0.6-1-0.7-1.4c-0.3-1.1,0.1-1.8,1.2-3c0.2-0.2,0.4-0.4,0.5-0.7c0.2-0.3,0.3-0.6,0.5-0.9
	c0.1-0.2,0.1-0.4,0.2-0.6c0.2-0.7,0.1-1.2,0.1-1.2l6.2-0.8h0l4-2.9l6.2,6.7l0,0c0,0,0.2-0.1,0.6-0.1c0.3-0.1,0.7-0.2,1.2-0.3
	c0.4-0.1,0.7-0.2,1.2-0.3c0.6-0.2,1.2-0.3,1.8-0.5c2.5-0.8,4.8,0,7.5,0.8c0.2,0.1,0.4,0.1,0.7,0.1c0.6,0.1,1.4,0,2.2-0.1
	c0,0,0,0,0,0c0.8-0.1,1.6-0.3,2.4-0.5c0,0,0,0,0,0c0.3-0.1,0.7-0.2,1-0.3c0.5-0.2,1.1-0.4,1.5-0.5c0,0,0,0,0,0
	c0.4-0.1,0.7-0.3,1.1-0.5c0.3-0.1,0.6-0.3,0.8-0.4c0.1-0.1,0.2-0.1,0.3-0.2c0,0,0.1-0.1,0.1-0.1c0,0,0.1-0.1,0.1-0.1
	c0.9-0.9,3.2-0.2,4.6,1.1c0.2,0.2,0.4,0.4,0.6,0.7c0.1,0.1,0.2,0.2,0.3,0.3c0.3,0.3,0.6,0.5,0.9,0.6c0.1,0.1,0.3,0.1,0.4,0.1
	c0,0,0.1,0,0.1,0c0.2,0,0.3,0.1,0.5,0.1c0.1,0,0.2,0,0.3,0c0.1,0,0.2,0,0.2,0c0,0,0,0,0.1,0c0,0,0.1,0,0.1,0
	c0.5,0.1,0.9,0.4,1.1,1.1c0,0.1,0.1,0.1,0.1,0.2c0.1,0.2,0.3,0.4,0.5,0.7c0,0,0,0,0,0c0.1,0.2,0.3,0.4,0.5,0.6
	c0.8,0.8,1.8,1.7,2.9,2.5c0.3,0.2,0.5,0.4,0.8,0.6c2.2,1.7,4.2,3.1,4.2,3.1s-0.1,0.6-0.4,1.4c0,0.1-0.1,0.2-0.1,0.3
	c-0.3,0.8-0.6,1.7-1,2.6c-0.4,0.8-0.3,1.6,0,2.3c0,0,0,0,0,0c0.5,1.1,1.5,2.2,2.3,3.1c0.1,0.1,0.2,0.2,0.2,0.3c0,0,0,0,0,0
	c1,1.8,1.1,6,1.8,8c0,0.1,0.1,0.3,0.1,0.4c0.6,2,0.4,3.9,1.4,5.1c0.2,0.2,0.4,0.5,0.7,0.8c0.6,0.6,1.3,1.3,2,1.9
	c0.1,0.1,0.2,0.2,0.3,0.3c0.1,0.1,0.2,0.2,0.3,0.3c0.3,0.4,0.6,0.8,0.8,1.2c0,0.1,0.1,0.2,0.2,0.3c0.1,0.2,0.2,0.4,0.3,0.6
	c0.3,0.6,0.8,1.2,1.5,1.8c0.1,0.1,0.2,0.2,0.4,0.3c0.3,0.2,0.5,0.4,0.8,0.5c0.5,0.3,1,0.5,1.7,0.7c0.2,0.1,0.4,0.1,0.7,0.2
	c0.3,0.1,0.6,0.1,0.9,0.2c0,0,0.1,0,0.1,0c0.3,0,0.6,0.1,0.8,0.1c0.4,0,0.8-0.1,1.2-0.1c0.2-0.1,0.4-0.1,0.6-0.2c0,0,0,0,0,0
	c0.3-0.1,0.5-0.3,0.7-0.4c0.1-0.1,0.2-0.2,0.3-0.3c0.3-0.3,0.4-0.5,0.4-0.5l0,0l-2-3.2c0,0,0-0.1,0.1-0.2c0.1-0.1,0.1-0.2,0.2-0.4
	c0-0.1,0.1-0.2,0.1-0.3c0.5-1,1.2-3,1.5-6.6c0.5-5.7,0-7.3,3.5-7.8c1.5-0.2,2.7-0.8,3.5-1.6c1-1,1.5-2.6,1.5-4.6
	c0-3.6-1-10.9,1.5-13.5c2.5-2.6,2-5.7,6.5-5.7s7,0,10.5,0c1.5,0,3,0.2,4.3,0.6c1.3,0.4,2.5,1.1,3.4,2.1c0.3,0.3,0.5,0.6,0.8,0.9
	c0.4,0.5,0.8,1.1,1.4,1.7c0,0,0,0,0,0c0.5,0.6,1.1,1.4,1.7,2c0.5,0.6,1.1,1.2,1.6,1.7c0.2,0.2,0.4,0.4,0.7,0.6
	c1.3,1.3,2.7,2.3,3.8,2.6c0.1,0,0.2,0,0.3,0.1c0.1,0,0.2,0,0.2,0.1c0.8,0.3,1.4,1.1,2,2c0.2,0.3,0.3,0.5,0.5,0.8l0,0
	c0.3,0.5,0.7,1.1,1,1.6c0,0,0,0,0,0c0.1,0.2,0.3,0.3,0.4,0.5c1.2,1.3,2.7,1.7,5.3-0.3h0c0.5-0.4,1-0.8,1.5-1.2
	c0.2-0.2,0.5-0.4,0.7-0.5c0.6-0.5,1.2-0.9,1.6-1.3c0,0,0,0,0,0c2-1.5,2.9-2.1,4-1.7c0.4,0.1,0.7,0.3,1.2,0.6
	c0.4,0.3,0.9,0.5,1.4,0.6c2.4,0.7,5.5,0.2,7.6-0.6c0.6-0.2,1.2-0.4,1.8-0.6c0,0,0,0,0,0c1-0.3,2-0.3,2.8-0.1c0.6,0.2,1,0.6,1.3,1.2
	c0,0.1,0.1,0.3,0.1,0.5c0,0.2,0.1,0.5,0.3,0.9c0,0.1,0.1,0.2,0.2,0.4c0.1,0.3,0.2,0.5,0.4,0.8c0.1,0.2,0.2,0.4,0.3,0.6
	c0.1,0.3,0.3,0.5,0.4,0.8c0.1,0.2,0.2,0.3,0.3,0.5c0.2,0.3,0.4,0.7,0.6,1c1.1,1.7,2.4,3.5,3.8,5.1c0.3,0.3,0.5,0.6,0.8,0.9
	c0.1,0.1,0.3,0.3,0.4,0.4c0.1,0.1,0.3,0.3,0.4,0.4c0.8,0.8,1.5,1.4,2.2,1.8c1.1,0.6,2.2,1.5,3.2,2.5c0.2,0.2,0.4,0.4,0.6,0.6
	c0.8,0.8,1.6,1.7,2.2,2.5c0.5,0.6,1,1.2,1.4,1.8c0.4,0.5,0.8,1,1,1.4c0.4,0.5,0.7,0.9,1,1.3c0.5,0.7,0.9,1.3,1.2,2.1
	c0.2,0.6,0.3,1.3,0.3,2.3c0,1.1,0.1,2,0.3,2.6c0.1,0.2,0.1,0.3,0.2,0.5c0.2,0.2,0.3,0.4,0.6,0.5c0.1,0,0.1,0.1,0.2,0.1
	c0.5,0.2,1.2,0.2,2.2,0c1.4-0.2,2.7-0.3,3.6,0.1c0.7,0.3,1.3,0.7,1.6,1.5c0.2,0.4,0.3,0.9,0.3,1.6c0,1.5,0.4,3.9,1,5.9
	c0.5,1.5,1.3,2.7,2.2,3c0.4,0.1,0.8,0.1,1.3-0.1l-2.5,9.3l-4.5,6.2c0,0,0.5,3.6,1.5,6.2c1,2.6-0.5,7.3-1,9.9c-0.5,2.6-2,5.7-2,5.7
	s-7.5,6.8-10,8.3s-1,1.6-1,5.2c0,3.6,2,2.6,2,5.7c0,3.1-2,4.7-2,4.7s3,0.5,4.5,2.6c1.5,2.1,2,3.6,2,3.6s0,3.6,0,7.8
	c0,4.2-5.5,5.7-8.5,6.2c-3,0.5-6.5,1-6.5,1s-5,5.2-5.5,7.8c-0.5,2.6-2.5,3.1-4.5,3.1s-3,2.6-3,5.2c0,2.6,1.5,3.1-1,5.2
	s-2.5,6.2-4.5,8.8c-2,2.6-1.5,10.9-1.5,13.5c0,2.6-0.5,5.2-2.5,7.3c-2,2.1,0.5,5.2,0.5,8.3c0,3.1-3,3.6-6,4.2
	c-3,0.5-3.5,1.6-3.5,3.6c0,2.1,0,4.2,4,4.7c4,0.5,4,3.6,4,3.6s-0.5,2.1-4,5.2c-3.5,3.1,0.5,7.8,1.5,9.9c1,2.1,0.5,3.1,4.5,4.7
	c4,1.6,4,3.6,4,3.6s-2,4.2-5,6.2c-3,2.1-4.5,6.2-2.5,7.8c2,1.6,3,2.1,3.5,5.2c0.5,3.1,4.5,3.1,7.5,2.6c3-0.5,5.5,0.5,8,3.1
	c2.5,2.6,2,0.5,5,0c3-0.5,3.5,1,6,3.6c2.5,2.6,1.5,2.1,1.5,5.2c0,3.1-1,4.2-4.5,3.6c-3.5-0.5-4.5,3.1-4.5,3.1l-3.5,2.6l-3-3.6
	c0,0-3.5-2.6-6-5.2c-2.5-2.6-6.5-1.6-8.5,0c-2,1.6-4.5,4.2-4.5,4.2s-2,1-5,1s-2.5,1.6-2,3.6s3.5,3.1,8,4.7c4.5,1.6-0.5,5.2-0.5,5.2
	l-1,4.7l-2.7,0.1c-1.7-0.2-3.2-0.4-3.8-0.6c-2-0.5-14.8-3.6-14.8-3.6l-9,4.4l-2.3,4.4l-6.8-3.1l-4,2.3l5,3.6c0,0,3.8,0.8,3.3,2.1
	s-5.8,7.5-5.8,7.5v7l-2.8,3.1l-4.8,2.1l-5.8-7.3v-3.4c0,0,2.5-2.3,3.5-3.1c1-0.8,0.8-2.6,0.8-2.6l-2.5-2.6c0,0-2.8,1.3-4,0
	s-1.8-1.3-3-1.6c-1.3-0.3-2.3-0.5-3.8-0.5s-4,1.5-4,1.5l-0.8,2.1l-3.8-0.3c0,0-2.8-1-4.3-1s-2.8,0-2.8,0l-0.3,3.1
	c0,0-0.5,0.5,2.5,2.3c3,1.8,4.3,1.6,5.3,1.6s3-1.6,3,1.3c0,2.9-0.3,5.5-0.3,6.8c0,1.3,0,2.9,0,2.9l-3.5-2.3c0,0-1.3,3.9-2.8,4.7
	s-4.5,1.8-2,3.4c2.5,1.5,3,2.6,3,2.6l-7.3,0.3l-6,0.8l1.3,5.2c0,0-2.8,1.6-4.5,2.3s-3.3,2.8-4.3,3.6s-2,1-4.3,1.3s-4.5-0.3-6.3-1.8
	c-1.8-1.6-4.8-7-4.8-7s-2.5-2.6-2.5-4.1c0-1.6-1.3-1.8-2.5-2.3c-1.3-0.5-2.3-0.8-2.5-2.1c-0.3-1.3-0.5-2.1-1.5-2.3
	c-1-0.3-6-2.1-8-2.6c-2-0.5-5,1.8-5,1.8l-3.8-0.3l-2-2.9l-0.8-3.9c0,0,2-4.2,2.8-5.5s0.8-3.1,0.8-3.1l3.3-2.3c0,0,0.3-2.6,0.3-3.9
	c0-1.3,0-2.6,1.3-3.1c1.3-0.5,1.3-1.8,0.3-3.1c-1-1.3-0.8-3.1-0.8-3.1s-0.5,0-3,0s-0.5-2.6,0.5-3.1c1-0.5,2.8,0,2.8,0l1.5-2.1l1-2.9
	l5.8,2.1l4.3,1.8c0,0,2.5-1.3,2.5-3.9c0-2.6-0.8-3.1,0-4.9s1-3.4-0.3-4.4c-1.3-1-1.8-1-1.8-2.9c0-1.8,0.8-1.8-0.5-3.4
	c-1.3-1.5-7.5-8.3-7.8-9.3s-0.3-1.8-0.8-3.4c-0.5-1.5-3-4.4-3-4.4s-1.8-3.1-1.3-6.2s-0.5-9.4-0.5-9.4l-4.5-7.5h0l-2.3-4.7l2.3-1.8
	c0,0,2.3,3.6,3.5,4.4s2.3,2.6,3.3,3.9s3.5,0.5,4.3-0.5c0.8-1,4.3-6,4.3-6l-2.5-3.1l-5.3,2.8l-1-1.8c0,0,0-2.9,0-4.4
	c0-1.6,0.3-2.9,2-4.4c1.8-1.6,2.5-2.3,3.8-4.2c1.3-1.8,5.5-2.1,5.5-2.1s-0.3-3.6-0.8-5.4c-0.5-1.8,1.3-3.6,2.5-5.5
	c1.3-1.8,0.8-2.6-0.8-4.7s0.3-2.8,2-4.9s2.5-2.1,4.5-2.1s2.5-0.5,4.8-2.1c2.3-1.5,0.3-3.9-0.5-6.5c-0.8-2.6-1-5.4,0.5-7.3
	c1.5-1.8-1.3-5.5-0.8-8.6c0.5-3.1,0.5-3.9-0.5-6c-1-2.1-3.3-4.7-3.8-7c-0.5-2.3-3.3-3.9-4-6.5c-0.8-2.6,2.3-6.2,4-7.5
	c1.8-1.3,2.8-4.9,2.3-7.3c-0.5-2.3-2-2.9-3.5-2.3c-1.5,0.5-4-2.1-5.8-1.3c-1.8,0.8-1.8,0.5-4-1.8c-2.3-2.3-4.5-3.4-4.8-5.2
	c-0.3-1.8-3.3-2.1-4.3-2.1s-5.3-0.3-6-1.3s-7.8-11.4-8.3-12.5s-3.5-2.6-4.8-3.1s-5.3-0.5-7,0.5c-1.8,1-3.3,0.3-4.3-1.3
	c-1-1.6-3.8-2.6-5.5-2.1s-3.8-0.3-4.5-2.3c-0.8-2.1,1.5-6,2.8-7c1.3-1,3.3-1.3,5-1.6c1.8-0.3,0.5-3.1-1.3-4.7c-1.8-1.6-3.8-1-3.8-1
	L1045.2,346.2z"/>
<path fill="#666666" stroke="#FF1D25" stroke-width="3" d="M1180.9,634.4c-0.3,1-0.3,3.9-0.3,3.9l-2.3-2.6c0,0-0.8-2.1-0.8-4.1
	c0-2.1-4.8-2.1-4.8-2.1s-13,0.5-15.3,0.5s-2.3-0.3-2.3-1.8c0-1.6-0.5-3.4-2-3.9c-1.5-0.5-4.8-1.6-6.3-2.9c-1.5-1.3-3.5-1-6.5-1.3
	c-3-0.3-2-1.3-2.3-3.6s-4.5-1.3-4.5-1.3l-4.5-4.9l-1.3-5.2l6-0.8l7.3-0.3c0,0-0.5-1-3-2.6c-2.5-1.6,0.5-2.6,2-3.4s2.8-4.7,2.8-4.7
	l3.5,2.3c0,0,0-1.5,0-2.9c0-1.3,0.3-3.9,0.3-6.8c0-2.9-2-1.3-3-1.3s-2.3,0.3-5.3-1.6c-3-1.8-2.5-2.3-2.5-2.3l0.3-3.1
	c0,0,1.3,0,2.8,0s4.3,1,4.3,1l3.8,0.3l0.8-2.1c0,0,2.5-1.5,4-1.5s2.5,0.3,3.8,0.5c1.3,0.3,1.8,0.3,3,1.6s4,0,4,0l2.5,2.6
	c0,0,0.3,1.8-0.8,2.6c-1,0.8-3.5,3.1-3.5,3.1v3.4l5.8,7.3c0,0,10.3,9.1,11,10.1s0.5,3.1-0.5,4.7c-1,1.6,0.8,1.8,2,1.6
	s2.3,0.3,2.3,0.3l2.8,1.3c0,0,3,0,4.3,0.5c1.3,0.5,3.5,1.5,3.5,1.5s5,0.3,6,0.3s2.3-0.5,3.3-2.1c1-1.6,1.8-0.8,3.3-0.8
	s2.5-1.6,2.5-1.6s0.5,3.1,0,4.1s-2.3,2.6-3,3.6s-0.3,2.6-0.3,3.6s-1.3,3.4-2.3,3.9c-1,0.5-3.3,0.8-3.3,0.8l-3.8,2.6v2.9l-6.3-0.8
	l-2-2.1l-4.5,0.5C1181.6,631.5,1181.1,633.4,1180.9,634.4z"/>
<path fill="#666666" stroke="#FF1D25" stroke-width="3" d="M932.9,599.9l4.8-5.7l0.1,0c0.1,0.4,0.4,0.8,0.6,1.4
	c1.3,2.3,2.8,4.4,2.8,4.4h4.5c0,0,1.3,0.8,3.3,0.8s3.8,0.5,4.5,1.6c0.8,1,2.5,0.8,5,0.3c2.5-0.5,10-1.8,14.5-1
	c4.5,0.8,13,1.8,14.5,1.8s5,0,6.3-0.8c1.3-0.8,4.8-1.8,6.5-1.5c1.8,0.3,2-0.8,4.3-1.6s4.3-2.6,5-1.3s2.8,4.2,2.8,4.2s3.3-2.1,5-0.5
	c1.8,1.6,4.3-0.5,5.3-1.3s2.8-1.8,4.3-0.3c1.5,1.6,3.5,1,4-0.5c0.5-1.6,2-2.9,2-2.9s5,0.3,6,0.3s3.3-2.1,3.5-3.1s3-3.9,4.8-2.3
	c1.8,1.6,4.3,4.7,5,6c0.8,1.3,3.5,4.2,6.8,5.2c3.3,1,8.8,0.8,10.5,0.8s6.8-1.6,6.8-1.6l3.8-5.2l3.8,0.3c0,0,3-2.3,5-1.8
	c2,0.5,7,2.3,8,2.6c1,0.3,1.3,1,1.5,2.3c0.3,1.3,1.3,1.5,2.5,2.1c1.3,0.5,2.5,0.8,2.5,2.3c0,1.6,2.5,4.1,2.5,4.1s3,5.5,4.8,7
	c1.8,1.6,4,2.1,6.3,1.8s3.3-0.5,4.3-1.3s2.5-2.8,4.3-3.6s4.5-2.3,4.5-2.3l4.5,4.9c0,0,4.3-1,4.5,1.3s-0.8,3.4,2.3,3.6
	c3,0.3,5,0,6.5,1.3c1.5,1.3,4.8,2.3,6.3,2.9c1.5,0.5,2,2.3,2,3.9c0,1.6,0,1.8,2.3,1.8s15.3-0.5,15.3-0.5s4.8,0,4.8,2.1
	c0,2.1,0.8,4.1,0.8,4.1l2.3,2.6c0,0,0-2.9,0.3-3.9c0.3-1,0.8-2.8,0.8-2.8l4.5-0.5l2,2.1l6.3,0.8V631l3.8-2.6c0,0,2.3-0.3,3.3-0.8
	c1-0.5,2.3-2.9,2.3-3.9s-0.5-2.6,0.3-3.6s2.5-2.6,3-3.6s0-4.1,0-4.1s-1,1.6-2.5,1.6s-2.3-0.8-3.3,0.8c-1,1.5-2.3,2.1-3.3,2.1
	s-6-0.3-6-0.3s-2.3-1-3.5-1.5c-1.3-0.5-4.3-0.5-4.3-0.5l-2.8-1.3c0,0-1-0.5-2.3-0.3s-3,0-2-1.6c1-1.6,1.3-3.6,0.5-4.7
	s-11-10.1-11-10.1l4.8-2.1l2.8-3.1v-7c0,0,5.3-6.2,5.8-7.5s-3.3-2.1-3.3-2.1l-5-3.6l4-2.3l6.8,3.1l2.3-4.4l9-4.4
	c0,0,12.8,3.1,14.8,3.6c0.6,0.2,2.1,0.4,3.8,0.6c3.8,0.5,8.7,1,8.7,1s3,7.3,3.5,9.9c0.5,2.6,0.5,6.2,0.5,6.2l3,5.2c0,0,3,3.6,4,6.2
	c1,2.6,4.5,3.6,6,0.5c1.5-3.1,0-7.3,4-5.2s4,3.1,2.5,6.2c-1.5,3.1-2.5,4.7,0,5.7s4,1.6,4.5,4.2c0.5,2.6,3,4.7,3,4.7s5.5,4.7,1,4.7
	s-5.5-1-5,2.6c0.5,3.6,0,6.2,2,9.3c2,3.1,5,6.2,3,8.3s-6,4.7-7,6.8s-2.5,3.1-1,5.7c1.5,2.6,2.5,6.2,2.5,6.2l5.5,3.1l3.5,5.7
	c0,0,2,4.7,4,2.6c2-2.1,3-2.6,5,0c2,2.6,9.5,7.8,12,9.3c2.5,1.6,4.5,5.7,1,5.2c-3.5-0.5-4,0-2.5,2.6c1.5,2.6,1.5,7.3,1.5,7.3
	c-0.9,0.5-1.7,1.4-2.6,1.9c-0.1,0-0.3-0.1-0.5-0.1c0,0-0.1,0-0.1,0c-1.7-0.2-4.6,0.5-6.3,0.6c-1.6,1-3.2,6-3.6,7.7
	c-3.2,1.1-4.9,3.4-7.3,5.6c-0.2,0.2-0.3,0.3-0.5,0.4c-0.9,0.8-1.8,1.3-2.7,1.6c-0.1,0-0.2,0.1-0.4,0.1c-0.2,0.1-0.5,0.1-0.7,0.2
	c0,0,0,0,0,0c-0.2,0.1-0.5,0.1-0.7,0.2c0,0,0,0,0,0c-2.2,0.4-4.2,0.4-5.5,1.7c-0.7,0.6-1.2,1.4-1.8,2.2c0,0,0,0,0,0
	c-0.6,0.8-1.1,1.5-1.7,2.2c-1,1-2.2,1.7-3.1,2.7c-2.9,3.1-5.9,11-10,14.7c-2.6,2.3-6,1.9-8.2,3.5c-1.7,1.3-3.7,3.1-5.5,4.1
	c-0.2,0.1-0.4,0.2-0.6,0.3c-0.4,0.2-0.8,0.4-1.3,0.5c-0.7,0.3-1.3,0.5-2,0.7c-2.3,0.8-4.6,1.5-6.4,2.8c-0.4,0-1.9-0.2-2-0.1
	l-1.9,0.9c-1.8,1.4-3.4,3.2-5.1,4.7c-0.8,0.7-1.7,1.2-2.4,2c0,0.1-0.8,1.2-0.8,1.3c-0.3,0.8-0.2,1.9-0.4,2.8l-0.9,1.6l-0.5,0.8
	c-3.8,0.7-6.6-0.4-10.3-1.4c-1.4-0.4-2.7,0.8-4.1,0.6c-1.8-1.1-3.1-2.8-4.8-4c-0.5-0.4-3.2-0.1-4-0.5c-1.4-0.5-2.9-1.3-4.3-2
	c-1-2-2.1-3.9-3.1-5.9c-0.2-0.3-1-0.6-1.3-0.8l-2.8,5c0,0-0.2,1-0.2,1.1l1.3,1.9l0,1.6c-0.8,0.5-2.4,1.7-2.7,2.7
	c0.1,0.3,0.8,2.3,0.9,2.4c1.3,2,2.6,4.1,4,6c0.5,0.6,1.3,1.2,1.8,1.8c0,0,0.3,0.3,0.3,0.3c0.4,0.1,3.8,1.1,4,1.2
	c0.7,0.4,1.4,1.3,2.1,1.7l1.3,0.2l0.7,0.1l5.5,1.6l1.4,3.5l-3.4,0.4c-1.5,0.2-5.2-1.9-6.7-1.9c-0.8,0-1.6-0.2-2.4-0.3
	c0,0-0.3-0.1-0.3-0.1l-3.7-1.8c-1.2-0.6-2.7-1.3-4.1-1.5l-1.2,0.1c-0.2,0-0.4,0-0.6,0.1l-1.2,0.7l-0.6,0.3l-2-0.8
	c-1.2,0.4-3.6,1.4-4.7,1.6c-0.4,0.1-0.7,0-1.1,0c-1.4,0-2.8-0.1-4.2,0.3c-0.1,0.1-2.2,1.9-2.2,2l-1.8,0.5l-0.9,0.3l-1.3-0.7
	l-0.2-2.8c-0.3-0.5-1.3-1.2-1.8-1.2l-1.5,0.1c-0.3,0-0.5,0-0.8,0c-0.8,0.2-1.6,0.7-2.4,0.9c-0.6,0.1-2.2-0.3-2.8-0.5
	c-0.9-0.9-1.8-2.4-2-3.6c-0.1-0.1-1.2-0.6-1.2-0.6l-7.3,0.1c-1.4-0.4-2.8-1-4.3-1.1l-0.5,3.3c0,0-1,5.7-1,8.2c0,2.5-4.8,1.4-4.8,0
	c0-1.4,0-3.9,0-3.9l-4.4,1.8c0,0-0.7,1.4-2.4,3.2c-1.7,1.8-2.7,1.8-4.1,0.7c-1.4-1.1-1.4-2.5-1.4-2.5l1.4-3.5l-1-3.5
	c0,0-3.1,2.8-4.1,4.6c-1,1.8-3.1,5-4.8,6.4c-1.7,1.4-6.5,3.5-10.2,1.4c-3.8-2.1-9.5-3.8-9.5-3.8l-2.8-1.8c-1.5-1.2-3-3.2-4.5-4.3
	c-1-0.8-1.7-1.1-2.8-1.7l-5.5-3.5l-0.5-0.2l-0.9-0.3c-0.8-0.1-2,0.5-2.6,0.9c-0.9,1-1,3.2-1.1,4.5c0,0.2,0.1,1,0.1,1.1
	c-0.1,0.4-0.4,1-0.6,1.5l-1,0.6c-0.5-0.1-1.2-0.2-1.6-0.4c-1.6-0.7-3.2-1.5-4.7-2.1c-0.4-0.2-4.3-0.5-4.7-0.5
	c-1.6,0.1-3.3,0.7-4.9,0.7l-1.8-0.4c-0.5-0.1-1.4-0.3-1.7-0.9c-0.4-1.4-0.7-4.5-0.9-5.3c-0.1-0.3-0.2-0.3-0.4-0.5l-0.8-1.1
	c-0.4-0.4-1.7-1.3-2.3-1.5c-0.8,1.1-1.8,2.1-2.8,3c-1.3,0.4-2.9,0.2-4.1-0.1c-0.2-0.1-0.4,0-0.5-0.2c-0.9-0.6-2.1-2-3-2.7
	c-0.5,0-0.9,0-1.4,0c-3.2,2.6,0.4,5.3,0.7,8.2l-1.8,4.4l-0.9,2.1l-0.8,0.8c-1.8,1.8-4.9,2.7-7.4,2.6c-3.3-0.1-6.7-0.2-10-0.4
	c-3.5-0.2-4.7-0.8-8.2,0c-0.3,0.1-0.5,0-0.8,0.2c-1.6,0.7-3,1.8-4.7,2.4l-1.7,0.5c-0.8,0.2-1.6,0.1-2.3,0.3c-0.1,0-3,1.1-3,1.1
	c0,0-2.3,1.7-2.4,1.8l-1.2,1.4l-2.8,3.3c-0.9,0.3-3.2,0-4-0.3c-1-0.4-2.4-1.4-3.4-1.9v0c0,0,3.8-5.3,3.8-8.4s-1-7-2-9.6
	c-1-2.6-1.5-3.6-3-5.5c-1.5-1.8-5.8-7.5-5.8-7.5l2.8-9.3c0,0-1.3-3.4,1.3-6.2c2.5-2.9,5-9.3,5-9.3l-6-12.2c0,0-0.5-1.8-0.5-3.1
	c0-1.3,0.3-1.8-1.5-2.1c-1.8-0.3-3.5-1-3.5-1s-2.5-0.8-3-2.9c-0.5-2.1-1.3-4.2,0.3-6.2c1.5-2.1,2.5-9.1,1.8-11.9
	c-0.8-2.9-2-7.3-2.8-8.3c-0.8-1-1.8-1.5-3-2.1c-1.3-0.5-3.5-1.3-3-3.4s0.8-3.1-0.3-4.1s-7.5-7.5-7.5-7.5s-4-1.8-5.8-0.8
	s-6.5,3.4-8,3.6c-1.5,0.3-4.8,0.5-6.8,0.5s-14-0.3-14-0.3s-2.5-0.5-3.8-2.1s-2.5-3.4,0.3-4.7c2.8-1.3,3.5-2.3,4-4.9
	c0.5-2.6,2-8.6,3-10.4c1-1.8,2.3-4.2,2-6c-0.3-1.8,1-6.8,1.5-7.8s0-10.7,0-11.9c0-1.3-0.3-4.4-0.8-5.7c-0.5-1.3-1.5-4.7,1.5-6.5
	c3-1.8,4.5-4.2,6.3-4.9s5,0,6.5,1.6c1.5,1.6,3,3.1,5.3,4.1c2.3,1,8,2.9,8,2.9v-4.4l6-6h3.3L932.9,599.9z"/>
<path fill="#666666" stroke="#FF1D25" stroke-width="3" d="M1109.1,449c0.8,2.6,2.8,4.9,0.5,6.5c-2.3,1.6-2.8,2.1-4.8,2.1
	s-2.8,0-4.5,2.1s-3.5,2.8-2,4.9s2,2.9,0.8,4.7c-1.3,1.8-3,3.6-2.5,5.5c0.5,1.8,0.8,5.4,0.8,5.4s-4.3,0.3-5.5,2.1
	c-1.3,1.8-2,2.6-3.8,4.2c-1.8,1.6-2,2.9-2,4.4c0,1.6,0,4.4,0,4.4l1,1.8l5.3-2.8l2.5,3.1c0,0-3.5,4.9-4.3,6c-0.8,1-3.3,1.8-4.3,0.5
	s-2-3.1-3.3-3.9s-3.5-4.4-3.5-4.4l-2.3,1.8l2.3,4.7c0,0-2.5-0.3-4.3-1s-3.3,0-4.5,0.5c-1.3,0.5-2.8,1.8-3.5,0.3
	c-0.8-1.6-1-2.1-2.3-2.1s-1.8,0.5-3-0.5s-4.3-0.8-4.3-0.8s-2.8,1.3-4.8,0.5s-3.3-1-3.3,1s0.3,2.3-2,2.3s-6.3,1.8-6.3,1.8
	s-0.5,1.8-0.8,3.1c-0.3,1.3-1,3.4-2.5,2.9c-1.5-0.5-2-0.8-2-0.8l-0.3-5.2c0,0,1.8-1.3,1.8-2.8c0-1.6-1-1.3,0-2.9
	c1-1.6,0.5-2.3-1-3.1c-1.5-0.8-1.8-1.3-3,0c-1.3,1.3-1.5,1.8-1.8,3.6s-1,3.6-1,3.6l-1.8,1l-3.8-5.5c0,0,1.3-0.8,1.3-2.3
	c0-1.6,0.3-2.3,1-3.4s0.5-3.1,1.8-4.7c0.4-0.5,0.8-1,1.2-1.5c0.8-1.2,1.3-2.4,0.6-3.4c-1-1.5-0.3-4.9-2-6.2s-1.8-1.8-1.8-3.9
	s-0.8-4.9,1.5-4.9s3.8-0.3,4-1.3s0.3-3.6,0.3-3.6s-3.8-2.9-4.8-3.9s-1.3-3.9,2-4.7c3.3-0.8,8.8-4.4,10-7.3c1.3-2.9,4.5-7.3,4.5-7.3
	l0.3-3.1l2.5-0.5l4.8-6.2c0,0,0-1.8-0.8-2.8s-0.8-3.9-0.8-3.9l-0.5-4.4l-5.3-7.3l-1.5-6.2c0,0,0.5-2.9,2.3-5.2s4.3-6.8,4.3-6.8
	s0.3-4.7-1.8-5.7s-7.8-2.6-7.8-2.6s0-2.1-1.3-3.9c-1.3-1.8-1-2.9-1-3.9c0-1,0.3-7.8,0.3-7.8s-2.3-2.3-2.5-3.4s0.3-1-1.5-1.8
	c-1.8-0.8-3-1.8-1.5-3.1s1.5-4.7,3-5.7s1.8,0.8,3.8-1.8c1.9-2.5,4.8-6.9,5-7.3l2,3.6c0,0,2-0.5,3.8,1c1.8,1.6,3,4.4,1.3,4.7
	c-1.8,0.3-3.8,0.5-5,1.6c-1.3,1-3.5,4.9-2.8,7c0.8,2.1,2.8,2.9,4.5,2.3s4.5,0.5,5.5,2.1c1,1.6,2.5,2.3,4.3,1.3c1.8-1,5.8-1,7-0.5
	s4.3,2.1,4.8,3.1s7.5,11.4,8.3,12.5s5,1.3,6,1.3s4,0.3,4.3,2.1c0.3,1.8,2.5,2.9,4.8,5.2c2.3,2.3,2.3,2.6,4,1.8
	c1.8-0.8,4.3,1.8,5.8,1.3c1.5-0.5,3,0,3.5,2.3c0.5,2.3-0.5,6-2.3,7.3c-1.8,1.3-4.8,4.9-4,7.5c0.8,2.6,3.5,4.1,4,6.5
	c0.5,2.3,2.8,4.9,3.8,7c1,2.1,1,2.9,0.5,6c-0.5,3.1,2.3,6.8,0.8,8.6C1108.1,443.6,1108.4,446.4,1109.1,449z"/>
<path fill="#666666" stroke="#FF1D25" stroke-width="3" d="M905.1,320c-0.1,0.2-0.1,0.3-0.1,0.5c0,0,0,0,0,0c-0.1,0.7,0,1.6,0.3,2.4
	l0,0c0.2,0.5,0.5,1,0.9,1.3c0.2,0.2,0.4,0.3,0.7,0.4c0.4,0.2,0.8,0.3,1.2,0.5c0.3,0.1,0.5,0.2,0.8,0.3c0.2,0,0.3,0.1,0.4,0.1
	c1.3,0.2,2.5,0.1,3.1-1.3c0.2-0.3,0.3-0.6,0.6-0.9c0.3-0.4,0.8-0.7,1.2-0.9c0.2-0.1,0.3-0.1,0.5-0.2c0.8-0.2,1.6-0.1,2.3,0.1
	c0.1,0,0.1,0,0.2,0.1c0.3,0.2,0.7,0.4,0.9,0.6c1.4,1.5,3.7,1.5,5,0.3c0.1-0.1,0.2-0.2,0.3-0.3c0.6-0.7,0.9-0.8,1.5-0.6
	c0.7,0.3,1.8,1.1,4,2.2c2,0.9,3.1,1.9,4,2.8c0.2,0.2,0.4,0.4,0.6,0.6c0.1,0.1,0.2,0.2,0.3,0.3c0.2,0.1,0.5,0.3,0.7,0.4
	c0.1,0,0.3,0.1,0.4,0.1c0.3,0.1,0.6,0.1,0.9,0.1c0.2,0,0.3,0,0.5,0c0,0,0,0,0.1,0c0.4,0,0.8,0.1,1.1,0.2c0.1,0,0.1,0,0.2,0
	c0.3,0.1,0.5,0.2,0.7,0.3c0.2,0.1,0.5,0.3,0.7,0.4c0.2,0.1,0.3,0.3,0.5,0.4c0.5,0.4,0.9,0.8,1.5,1.2c1.6,1,5.1,2.3,6.6,2.9
	c0.1,0,0.1,0,0.2,0.1c0.1,0,0.1,0,0.2,0.1c0.1,0,0.2,0,0.2,0.1c0,0,0,0,0.1,0c0,0,0,0,0,0s0,0,0,0l0,0l2.4,3.3l-5.2,3.7
	c0,0-2.8,0.5-5,1.6c-2.3,1-5.8,2.3-5.3,4.4s-3,2.1-5.5,1.6s-5.3,4.1-5.3,4.1s0.8,4.1-0.5,5.5c-1.3,1.3-3.3,3.1-4.8,2.3
	s-5.5-0.5-7,0.5s-3.8,2.1-6,1.3c-2.3-0.8-6,0.3-9-0.8s-4.5-0.3-6.5-0.3s-6.3,2.3-7.8,3.9s-7.3,1-8.3,0.3c-1-0.8-3-1.3-6.5-2.9
	c-0.4-0.2-0.7-0.3-1-0.4c0,0,2.2-2.5,2.2-6.4c0-3.9,0-6.5,1.3-9.6c1.3-3.1,0.5-4.9-0.3-6s-2.8-1.6-2-4.1c0.8-2.6,0-4.2-1.8-4.9
	c-1.8-0.8-2.5-4.7-1.5-5.7c1-1,3-5.2,6-5.7c3-0.5,5.8-4.1,6.5-6.2c0.8-2.1,1.3-3.9,4-4.4s9-2.9,10.8-4.4c1.8-1.6,2.3-2.6,3-4.4
	s1.3-5.7,1.3-5.7s5.3,0.5,8.3-0.8c3-1.3,7.3-2.6,7.3-2.6c0,0.2-0.1,0.5-0.2,0.9c0,0.1-0.1,0.2-0.1,0.4c-0.4,1.3-1,3.1-1.9,4
	c-0.1,0.1-0.2,0.1-0.3,0.2c-0.6,0.4-1,0.7-1.4,1c-0.6,0.5-0.9,1.1-0.9,2.1c0,0.2,0,0.4-0.1,0.7c0,0,0,0,0,0c0,0.3-0.1,0.6-0.2,0.9
	c-0.1,0.3-0.2,0.7-0.2,1v0c-0.5,1.7-1,3.6-1,3.6s0,0-0.1,0c-0.4-0.1-1.9-0.4-3.1-0.1c-0.1,0-0.2,0-0.3,0.1c-0.3,0.1-0.5,0.2-0.8,0.3
	c-0.4,0.3-0.7,0.5-1,0.7c0,0,0,0,0,0c-0.9,0.6-1.7,1.1-3,1.6c-0.5,0.2-0.9,0.5-1.2,0.8c-0.6,0.6-0.8,1.5,0.1,2.3
	c0.2,0.3,0.5,0.5,0.9,0.8c0.3,0.2,0.6,0.4,0.9,0.5c0.3,0.2,0.5,0.3,0.7,0.4c0,0,0,0,0,0c0.2,0.1,0.4,0.3,0.6,0.4
	c1,0.6,1.8,1,3.3,1.8c0.5,0.3,0.9,0.6,1.2,0.9c0.1,0.1,0.1,0.1,0.2,0.2c0.1,0.1,0.2,0.2,0.3,0.3C905.5,318.4,905.5,319.2,905.1,320z
	"/>
<path fill="#666666" stroke="#FF1D25" stroke-width="3" d="M912.6,382.1c2,1.3,0.8,2.3-0.5,3.6c-1.3,1.3-0.3,2.9-0.3,4.9
	c0,2.1-0.3,2.9-2.5,3.4c-2.3,0.5-0.3,3.6-0.3,5.4c0,1.8-0.8,3.1-1.8,4.2c-1,1-1.5,2.1-3,3.1s-1.5,4.1-1.5,4.1s-3.3,2.3-4.8,1.3
	s-2.8-0.3-3,1c-0.3,1.3-0.8,2.3-2,1c-1.3-1.3-6-4.4-6-4.4h0c0,0-9-0.5-10.3-1.8c-1.3-1.3-4-2.9-5-3.9c-1-1-4.3-4.1-4.3-4.1
	s4-2.3,4.5-3.9c0.5-1.6,0.5-4.7,0.5-4.7l-6.5-4.1c0,0,0.8-5.7,0.8-6.8c0-1-0.3-3.4-0.3-3.4c0.3-0.2,0.5-0.4,0.5-0.7
	c0.4-1.2-0.2-3.1-0.2-3.1c0.7-0.3,1.4-1.1,1.4-1.1l4.3,1.3c0,0,1.5,0.3,2.8-0.3s1.5-1.3,2.8-1.6c1.3-0.3,3.3,0,4.5,0.5
	c1.3,0.5,4.3,4.2,5.3,5.7c1,1.6,2.5,1.3,3.8,0.5c1.3-0.8,3.8-2.1,5.3-2.6s2.5-0.5,3.8,0.3c1.3,0.8,1,2.6,0,3.6s-1.3,2.3-1.3,4.4
	c0,2.1,1.5,2.1,2.5,1s0.3-1.6,0.8-2.9c0.5-1.3,3.3-2.1,5-2.1S910.6,380.8,912.6,382.1z"/>
<path fill="#666666" stroke="#FF1D25" stroke-width="3" d="M877.4,451.6c0,0,0.3,1.6,0.8,3.1c0.5,1.6,1,3.4,2,4.9
	c1,1.6,1.8,3.4,3.5,4.2c1.8,0.8,5.3,1.6,5.3,1.6s2,3.4,3,4.9c1,1.5,5.3,3.4,5.3,3.4s1-2.1,0.5-3.4c-0.5-1.3-2-5.7-2-5.7
	s3.3-1.3,5.3-1.5s2,0,4.3,0.8c2.3,0.8,6,1.5,8,1.8c2,0.3,3.3,1.6,3.3,1.6s-1.3,2.3-2.5,3.6c-1.3,1.3-0.8,2.3-0.3,3.6s5.5,6,6.8,6.8
	c1.3,0.8,4,0.5,5.3,0.3c1.3-0.3,4.3-6.5,5-7.5s0.8-3.1,0.3-5.5c-0.5-2.3,0.5-5.5,0.5-5.5s1.5,0.8,3,2.1s5.3,2.9,5.3,2.9
	s1.5-1,1.8-2.1s1.8-3.6,2.8-5.5c1-1.8,1.3-3.6,0.8-5.2c-0.5-1.6-1.3-3.4-2.5-5.2c-1.3-1.8,0.5-3.4,1.8-2.8c1.3,0.5,4.5,3.1,6.5,4.4
	s2.8,1.3,4.8,1.3s4.3-1.8,5-2.9c0.8-1,2.5-1.8,3.5-2.1s4,0,5.8-0.5c1.8-0.5,4-3.1,4.5-4.7c0.5-1.6,2.3-2.3,3.8-2.6s3.8,1.3,4.5,2.6
	c0.8,1.3,6.8,12.5,8,14c1.3,1.6,6,15.3,6,15.3s-0.3,1.3-0.8,2.3s-0.8,0.8-3,2.3c-2.3,1.6,1,3.9,2.5,4.4c1.5,0.5,2.5,1.5,3.3,0.3
	c0.8-1.3,0.5-3.4,1-5.2c0.5-1.8,4.5-4.9,6.3-5.7c1.8-0.8,3.3-3.6,3.3-3.6l3.3,4.4l2.3-1.6l2.5,2.1l3.8,7.8c0,0,4,2.1,6.5,3.1
	c2.5,1,3.7,3.4,3.7,3.4c-0.4,0.5-0.8,1-1.2,1.5c-1.3,1.6-1,3.6-1.8,4.7s-1,1.8-1,3.4c0,1.5-1.3,2.3-1.3,2.3l3.8,5.5l1.8-1
	c0,0,0.8-1.8,1-3.6s0.5-2.3,1.8-3.6c1.3-1.3,1.5-0.8,3,0c1.5,0.8,2,1.5,1,3.1c-1,1.6,0,1.3,0,2.9c0,1.5-1.8,2.8-1.8,2.8l0.3,5.2
	c0,0,0.5,0.3,2,0.8c1.5,0.5,2.3-1.5,2.5-2.9c0.3-1.3,0.8-3.1,0.8-3.1s4-1.8,6.3-1.8s2-0.3,2-2.3s1.3-1.8,3.3-1s4.8-0.5,4.8-0.5
	s3-0.3,4.3,0.8s1.8,0.5,3,0.5s1.5,0.5,2.3,2.1c0.8,1.5,2.3,0.3,3.5-0.3c1.3-0.5,2.8-1.3,4.5-0.5s4.3,1,4.3,1h0l4.5,7.5
	c0,0,1,6.2,0.5,9.4s1.3,6.2,1.3,6.2s2.5,2.9,3,4.4c0.5,1.6,0.5,2.3,0.8,3.4s6.5,7.8,7.8,9.3c1.3,1.6,0.5,1.6,0.5,3.4
	c0,1.8,0.5,1.8,1.8,2.9c1.3,1,1,2.6,0.3,4.4s0,2.3,0,4.9c0,2.6-2.5,3.9-2.5,3.9l-4.3-1.8l-5.8-2.1l-1,2.9l-1.5,2.1
	c0,0-1.8-0.5-2.8,0c-1,0.5-3,3.1-0.5,3.1s3,0,3,0s-0.3,1.8,0.8,3.1c1,1.3,1,2.6-0.3,3.1c-1.3,0.5-1.3,1.8-1.3,3.1
	c0,1.3-0.3,3.9-0.3,3.9l-3.3,2.3c0,0,0,1.8-0.8,3.1s-2.8,5.5-2.8,5.5l0.8,3.9l2,2.9l-3.8,5.2c0,0-5,1.6-6.8,1.6s-7.3,0.3-10.5-0.8
	c-3.3-1-6-3.9-6.8-5.2c-0.8-1.3-3.3-4.4-5-6c-1.8-1.6-4.5,1.3-4.8,2.3s-2.5,3.1-3.5,3.1s-6-0.3-6-0.3s-1.5,1.3-2,2.9
	c-0.5,1.6-2.5,2.1-4,0.5c-1.5-1.6-3.3-0.5-4.3,0.3s-3.5,2.9-5.3,1.3c-1.8-1.5-5,0.5-5,0.5s-2-2.9-2.8-4.2s-2.8,0.5-5,1.3
	s-2.5,1.8-4.3,1.6c-1.8-0.3-5.3,0.8-6.5,1.5c-1.3,0.8-4.8,0.8-6.3,0.8s-10-1-14.5-1.8c-4.5-0.8-12,0.5-14.5,1
	c-2.5,0.5-4.3,0.8-5-0.3c-0.8-1-2.5-1.6-4.5-1.6s-3.3-0.8-3.3-0.8h-4.5c0,0-1.5-2.1-2.8-4.4c-0.3-0.5-0.5-1-0.6-1.4
	c-0.5-1.4-0.4-2-0.4-2l-2.5-0.3l-1.3-1.6c0,0-1.5,0.5-3,0.5s-7.3-3.4-7.3-3.4l-3.8-1.3c0,0-2.5-1.3-3.8-0.5s-2,1.3-4.5-0.3
	c-2.5-1.6-4-0.5-6.5,0.3s-5,0.3-6.8-0.5c-1.8-0.8-3.3-2.3-3.3-2.3s-7.3-2.6-9.8-3.9s-1.5-5.2-1.5-6.8c0-1.6-0.8-2.8-2.5-2.8
	s-5.5,1-6.8,0.3c-1.3-0.8-7-6-7-6s0.8-2.1,1.5-3.4c0.8-1.3-0.8-2.9-2-3.6c-1.3-0.8-4.8-2.1-4.8-2.1s-0.3-3.1,1.3-4.7
	c1.5-1.6-2.8-3.9-4.5-4.9s-4-0.3-6.3-0.3s-3-0.3-6-3.6c-3-3.4-5.8-3.9-5.8-3.9s-2.8-1-4.3-1c-1.4,0-4.3,1.2-4.5,1.3
	c0,0-4.8-4.4-5.5-5.7s-1.8-3.1-0.3-4.9c1.5-1.8,2-4.4,4-4.4s4.3-1.3,4.8-2.3s1-2.6,3-2.6s3.3-1.3,4.3-2.6c1-1.3,2.5-5.2,1.3-7.5
	c-1.3-2.3-3.5-3.4-1.8-5.2c1.8-1.8,3-1.3,2.5-3.9c-0.5-2.6,0-3.9,0-3.9l1.5-2.1V489l4.8,0.3c0,0,2.8-1.6,3.8-3.6s1.3-2.3,3.8-3.4
	s5-6.8,5-6.8s0-4.9,1.8-7.3c1.8-2.3,3.5-6,4.8-7.8c1.3-1.8,5-7.3,5-7.3s0.7-2.1,0.1-2.9L877.4,451.6z"/>
<path fill="#666666" stroke="#FF1D25" stroke-width="3" d="M868.4,372.2c0,0-0.7,0.8-1.4,1.1c-0.6,0.2-1.1,0.1-1.4-1.1
	c-0.5-2.6-0.3-4.4-0.3-6c0-1.4-0.4-4,2-3.5c0.3,0.1,0.6,0.2,1,0.4c3.5,1.5,5.5,2.1,6.5,2.9c1,0.8,6.8,1.3,8.3-0.3s5.8-3.9,7.8-3.9
	s3.5-0.8,6.5,0.3s6.8,0,9,0.8c2.3,0.8,4.5-0.3,6-1.3s5.5-1.3,7-0.5s3.5-1,4.8-2.3c1.3-1.3,0.5-5.5,0.5-5.5s2.8-4.7,5.3-4.1
	s6,0.5,5.5-1.6s3-3.4,5.3-4.4c2.3-1,5-1.6,5-1.6l5.2-3.7l0.6,0.8h0h3.5l6.8-6.2h0c0,0,0-0.3,0.1-0.8c0-0.1,0-0.2,0.1-0.2
	c0.1-0.3,0.1-0.6,0.2-0.9c0-0.1,0.1-0.2,0.1-0.3c0.1-0.2,0.1-0.5,0.2-0.7c0.3-0.9,0.7-1.8,1.2-2.7c0.3-0.5,0.7-1,1-1.4
	c0.1-0.1,0.2-0.2,0.3-0.3c0.7-0.7,1.6-1.2,2.7-1.4c0.5-0.1,1.1-0.2,1.5-0.3c0.5-0.1,1-0.2,1.4-0.4h0c3.1-0.9,5.1-2.1,6.2-1.7
	c0,0,0.1,0,0.1,0.1c0.2,0.2,0.5,0.3,0.7,0.3c1,0.3,2.3,0,4.3-1.1c0.6-0.3,1.4-0.8,2.2-1.3c0,0,0,0,0,0c1.9-1.1,4.3-2.4,6.5-2.2
	c0,0,0.1,0,0.1,0c0.1,0,0.2,0,0.2,0c0.1,0,0.2,0,0.3,0.1c0.1,0,0.2,0,0.3,0.1c0.3,0.1,0.6,0.2,0.8,0.4c3.3,2,10,2.8,12,0.9
	c0.1-0.1,0.2-0.2,0.3-0.4c0.5-0.8,0.5-1.7,0.4-2.6c0,0,0,0,0-0.1c-0.1-1-0.1-1.9,0.5-2.6c0.1-0.1,0.1-0.1,0.2-0.2
	c0.1-0.1,0.3-0.2,0.5-0.3c0.6-0.3,1.5-0.5,2.9-0.5c4.9,0,6.1-0.6,6.4-0.9c0.1-0.1,0.1-0.2,0.1-0.2h0l3.2,2.3c0,0-2.3,3.6-3.3,4.9
	c-1,1.3,1,2.6,3,2.6s2.3,4.4,3.5,3.9c1.3-0.5,2.3-3.4,2.3-3.4s4,1,5.8,2.3c1.8,1.3,3.3,4.4,4.8,6s1.3,3.1,1.3,4.9s1,1.3,2.5,2.3
	c1.5,1,6,3.1,6,3.1l0.5,6.2l0,0c-0.2,0.3-3.1,4.8-5,7.3c-2,2.6-2.3,0.8-3.8,1.8s-1.5,4.4-3,5.7s-0.3,2.3,1.5,3.1
	c1.8,0.8,1.3,0.8,1.5,1.8s2.5,3.4,2.5,3.4s-0.3,6.8-0.3,7.8c0,1-0.3,2.1,1,3.9c1.3,1.8,1.3,3.9,1.3,3.9s5.8,1.6,7.8,2.6
	s1.8,5.7,1.8,5.7s-2.5,4.4-4.3,6.8s-2.3,5.2-2.3,5.2l1.5,6.2l5.3,7.3l0.5,4.4c0,0,0,2.9,0.8,3.9s0.8,2.8,0.8,2.8l-4.8,6.2l-2.5,0.5
	l-0.3,3.1c0,0-3.3,4.4-4.5,7.3c-1.3,2.8-6.8,6.5-10,7.3c-3.3,0.8-3,3.6-2,4.7s4.8,3.9,4.8,3.9s0,2.6-0.3,3.6s-1.8,1.3-4,1.3
	s-1.5,2.9-1.5,4.9s0,2.6,1.8,3.9s1,4.7,2,6.2c0.7,1.1,0.2,2.3-0.6,3.4c0,0-1.2-2.4-3.7-3.4c-2.5-1-6.5-3.1-6.5-3.1l-3.8-7.8
	l-2.5-2.1l-2.3,1.6l-3.3-4.4c0,0-1.5,2.8-3.3,3.6c-1.8,0.8-5.8,3.9-6.3,5.7c-0.5,1.8-0.3,3.9-1,5.2c-0.8,1.3-1.8,0.3-3.3-0.3
	c-1.5-0.5-4.8-2.9-2.5-4.4c2.3-1.5,2.5-1.3,3-2.3s0.8-2.3,0.8-2.3s-4.8-13.8-6-15.3c-1.3-1.5-7.3-12.7-8-14c-0.8-1.3-3-2.9-4.5-2.6
	s-3.3,1-3.8,2.6c-0.5,1.5-2.8,4.2-4.5,4.7c-1.8,0.5-4.8,0.3-5.8,0.5s-2.8,1-3.5,2.1c-0.8,1-3,2.9-5,2.9s-2.8,0-4.8-1.3
	s-5.3-3.9-6.5-4.4c-1.3-0.5-3,1-1.8,2.8c1.3,1.8,2,3.6,2.5,5.2c0.5,1.5,0.3,3.4-0.8,5.2c-1,1.8-2.5,4.4-2.8,5.5s-1.8,2.1-1.8,2.1
	s-3.8-1.6-5.3-2.9s-3-2.1-3-2.1s-1,3.1-0.5,5.5c0.5,2.3,0.5,4.4-0.3,5.5s-3.8,7.3-5,7.5c-1.3,0.3-4,0.5-5.3-0.3
	c-1.3-0.8-6.3-5.5-6.8-6.8s-1-2.3,0.3-3.6c1.3-1.3,2.5-3.6,2.5-3.6s-1.3-1.3-3.3-1.6c-2-0.3-5.8-1-8-1.8c-2.3-0.8-2.3-1-4.3-0.8
	s-5.3,1.5-5.3,1.5s1.5,4.4,2,5.7c0.5,1.3-0.5,3.4-0.5,3.4s-4.3-1.8-5.3-3.4c-1-1.6-3-4.9-3-4.9s-3.5-0.8-5.3-1.6
	c-1.8-0.8-2.5-2.6-3.5-4.2c-1-1.6-1.5-3.4-2-4.9c-0.5-1.6-0.8-3.1-0.8-3.1l-2.7-1.3c-0.1-0.1-0.3-0.2-0.5-0.2l0,0
	c-1.5,0-2.3-0.3-2-1.8s-0.5-2.1,1.5-4.2c2-2.1,0.5-3.4,0.5-3.4l-2-3.6c0,0-0.8-7.5,1.3-8.6c2-1,4.3-2.6,5-4.9
	c0.8-2.3,2.5-3.1,4.8-3.1s4.5-3.6,4.5-3.6l-0.5-7h0c0,0,4.7,3.1,6,4.4c1.3,1.3,1.8,0.3,2-1c0.3-1.3,1.5-2.1,3-1s4.8-1.3,4.8-1.3
	s0-3.1,1.5-4.1s2-2.1,3-3.1c1-1,1.8-2.3,1.8-4.2c0-1.8-2-4.9,0.3-5.4c2.3-0.5,2.5-1.3,2.5-3.4c0-2.1-1-3.6,0.3-4.9
	c1.3-1.3,2.5-2.3,0.5-3.6c-2-1.3-3.3-1.8-5-1.8s-4.5,0.8-5,2.1c-0.5,1.3,0.3,1.8-0.8,2.9s-2.5,1-2.5-1c0-2.1,0.3-3.4,1.3-4.4
	s1.3-2.9,0-3.6c-1.3-0.8-2.3-0.8-3.8-0.3s-4,1.8-5.3,2.6c-1.3,0.8-2.8,1-3.8-0.5c-1-1.6-4-5.2-5.3-5.7c-1.3-0.5-3.3-0.8-4.5-0.5
	c-1.3,0.3-1.5,1-2.8,1.6s-2.8,0.3-2.8,0.3L868.4,372.2z"/>
<path fill="#666666" stroke="#FF1D25" stroke-width="3" d="M538.9,473.4c0,0,4,1.3,4.8,3.1c0.8,1.8,3.5,2.1,5,2.1s3.5-1.3,4.5-2.3
	c1-1,1.8-2.6,1.8-2.6s-1.8-3.1,0.3-4.9c2-1.8,3-3.9,1-5.7c-2-1.8-2.8-4.4-2.8-5.5s-0.8-3.1,0.3-6.5c1-3.4,1-4.4-0.5-7
	c-1.5-2.6-1.3-2.8,0-4.1c1.3-1.3,3.8-7,6.5-9.6c2.8-2.6,4-4.4,4.5-5.7c0.5-1.3,5.8-11.4,7-13.5c1.3-2.1,4-6.8,5.5-8
	c1.5-1.3,2.5-2.1,3.3-4.7c0.8-2.6,1.3-3.4,2.8-4.4c1.5-1,2.5-3.6,4-5.7c1.5-2.1,2.3-2.3,3.5-3.1c1.3-0.8,3-2.3,3-2.3
	s-0.8-0.8-1.3-2.6s-1.8-5.5,0-6.8s2.3-3.4,2.8-4.9c0.5-1.6,1-6.5,2.3-7.3c1.3-0.8,5.3-2.1,5.3-5.2c0-3.1-0.8-6.8,3-8s6-3.9,6-5.2
	c0-1.3-0.5-6.5,2.8-6.5s9.3-0.3,9.3-0.3s4-2.3,5.8-2.9c0.9-0.3,2-0.9,3.2-1.2c1.1-0.3,2.3-0.4,3.3,0.4c2,1.6,1.8,2.1,0.3,3.6
	s-1.8,3.6-2.3,5.2s0,4.1,0,5.5c0,1.3-0.3,6-0.3,6s2,1.3,2.3,2.9c0.3,1.6,1.3,5.5,1.5,6.8c0.3,1.3,1.3,1.8,1.3,1.8s6-2.1,9.3-2.3
	c3.3-0.3,5.3-2.6,5.3-2.6s0.3-2.9,1.5-3.9s5-4.1,6.3-4.9c1.3-0.8,2.8-1.3,4.3,0.3c1.5,1.5,3.8,3.4,3.8,3.4l0.8,2.6c0,0,2,0,2.8,1.3
	c0.8,1.3,1.8,1.8,2.8,1.3s7.3-2.6,7.3-2.6s-0.8-3.4,0.5-3.9s2.5,0.5,3.5,1s4.8,1.3,6.5,2.3s5.8,2.1,8,2.3c2.3,0.3,4.3,1.6,5.3,2.6
	s10.8,9.9,10.8,9.9s2.3,2.3,2.3,3.9c0,1.6,0.3,2.3-1.8,2.6c-2,0.3-6.8,1.3-5.3,5.2c1.5,3.9,3,7.5,6.3,6.2c3.3-1.3,6-2.1,9.3-0.5
	c3.3,1.6,7.3,2.3,7.5,4.7c0.3,2.3,3.8,3.6,7,2.9c3.3-0.8,4.3-1,5.5-2.3c1.3-1.3,2.5-2.9,5.3-0.8c2.8,2.1,4.3,1.3,5.8,0
	c1.5-1.3,4.8-3.6,7-3.6s4-1.8,4.8-3.1c0.8-1.3,5.8-5.4,7.3-8.6c1.5-3.1,2.5-3.4,4-3.9s4-0.5,4-0.5s-1.3-2.3,1-2.6
	c2.3-0.3,4.3-1.6,4.3-1.6l2-2.9h7.3c0,0,12.3,2.1,16.3,2.6s4.5,0.3,6,1.6c1.5,1.3,2,2.6,3.8,1.6c1.8-1,5-1.3,7-0.5
	c2,0.8,3.5,1.8,4.5,2.1c1,0.3,4.5,1.6,4.5,1.6s2.3-1.3,3.3-2.8c1-1.6,2-3.6,4.3-3.6s3.8,0.8,3.5,2.6c-0.3,1.8-1.5,3.1,0.3,3.1
	s4.8,0.5,6.3,1.6s4.5,1.6,6.5,1c0.2-0.1,0.4-0.1,0.5-0.2h1c-0.1,0.3-0.3,0.6-0.5,0.7c0,0,0.3,2.3,0.3,3.4c0,1-0.8,6.8-0.8,6.8
	l6.5,4.1c0,0,0,3.1-0.5,4.7c-0.5,1.6-4.5,3.9-4.5,3.9s3.3,3.1,4.3,4.1c1,1,3.8,2.6,5,3.9c1.3,1.3,10.3,1.8,10.3,1.8l0.5,7
	c0,0-2.3,3.6-4.5,3.6s-4,0.8-4.8,3.1c-0.8,2.3-3,3.9-5,4.9c-2,1-1.3,8.6-1.3,8.6l2,3.6c0,0,1.5,1.3-0.5,3.4c-2,2.1-1.3,2.6-1.5,4.2
	s0.5,1.8,2,1.8l0,0l0.5,0.2c0.6,0.7-0.1,2.9-0.1,2.9s-3.8,5.5-5,7.3c-1.3,1.8-3,5.5-4.8,7.8c-1.8,2.3-1.8,7.3-1.8,7.3
	s-2.5,5.7-5,6.8s-2.8,1.3-3.8,3.4s-3.8,3.6-3.8,3.6l-4.8-0.3v3.1l-1.5,2.1c0,0-0.5,1.3,0,3.9c0.5,2.6-0.8,2.1-2.5,3.9
	c-1.8,1.8,0.5,2.8,1.8,5.2c1.3,2.3-0.3,6.2-1.3,7.5c-1,1.3-2.3,2.6-4.3,2.6s-2.5,1.6-3,2.6s-2.8,2.3-4.8,2.3s-2.5,2.6-4,4.4
	c-1.5,1.8-0.5,3.6,0.3,4.9s5.5,5.7,5.5,5.7c0,0,0,0,0,0l-2.5,3.1c0,0-0.8,1-4.8,1s-0.8,3.4-5.5,2.6s-5.3,2.6-7.3,4.7
	c-2,2.1-3.5,3.1-5.8,3.4s-4.3,1.3-5.5,2.6c-1.3,1.3-7.3,2.6-8.8,3.6s-2.8,1.6-6.8,2.1c-4,0.5-8,1.8-10,3.4c-2,1.6-8.3,4.7-11.3,4.2
	c-3-0.5-4.5,0-6,2.3c-1.5,2.3-3.3,1.6-5,0.3c-1.8-1.3-3.3-0.5-5.5,0.8s-7.3,0.8-10,0.3c-2.8-0.5-9.3-0.5-13-1
	c-3.8-0.5-4,0.3-5.3,1.6s-3.5,6-3.5,6l-5.5-0.8c0,0-3-2.1-4-4.1c-1-2.1-4-2.1-6-1s-4,3.4-5,2.3c-1-1-3-2.1-4.8-0.8
	c-1.8,1.3-2.5-0.3-4-2.1c-1.5-1.8-4.3-1.6-7.8-2.1c-3.5-0.5-3.3,0.8-3,2.6c0.3,1.8-1,2.6-3.8,2.8c-2.8,0.3-4.5,1.8-7,3.4
	c-2.5,1.6-8.5-1-12.3-1.8c-3.8-0.8-2.5-1.6-3.8-3.1c-1-1.2-3.3-2.3-5.3-2.5l0.1-0.6c0,0-2.5-4.4-1.3-8.3c1.3-3.9,2.5-3.4,1.3-6.5
	c-1.3-3.1-2-3.4-0.5-4.7s0.5-3.6-0.5-5.2c-1-1.6-1-6.8-2.8-8.8c-1.8-2.1-2-3.9-4.8-2.8s-3,0.5-4-0.3s-2.5-0.5-4,0
	c-1.5,0.5-3.8,1.5-4.8,0.5c-1-1-3.5-2.6-4.8-3.4s-2-1.3-3.8-1.3s-3.8-0.3-6-1c-2.3-0.8-2.8-1.3-3.8-2.8c-1-1.6-6.8-7-8-7.5
	c-1.3-0.5-2.3-0.5-3.5,0.5s-3.8,2.3-3.8,2.3s-2.8-3.1-3.5-4.2s-1.8-1.6-1.8-4.4c0-2.9-0.3-5.7-0.8-8s-1-3.6-1.8-5.2
	c-0.8-1.6-0.8-3.1-3.5-3.1s-3.3-1.3-5-1.3h-6.3c0,0,1,4.4-0.3,4.9c-1.3,0.5-1,1.8-3,1.3c-2-0.5-5.5,0.5-5.5,0.5s-3-3.4-4.8-3.6
	s-4.8-1.3-8.3-2.1s-5.3-1-5.3-2.8c0-1.8-0.3-2.3-1.8-3.9c-1.5-1.5-2-2.1-1-3.1s2.3-2.9,2.3-3.9c0-0.8-0.1-5.1-0.2-7.3
	C538.9,473.9,538.9,473.4,538.9,473.4z"/>
<path fill="#666666" stroke="#FF1D25" stroke-width="3" d="M659.3,649.6c-0.4-0.1-1.2,0-1.6-0.1c-0.5-0.1-0.9-0.2-1.3-0.3
	c-0.4-0.1-0.8-0.2-1.1-0.2c-0.1,0-0.1,0-0.2,0c-3.1-0.6-5.4-0.8-7.7-0.6c0,0,0,0,0,0c-0.6,0-1.1,0.1-1.7,0.2c0,0,0,0,0,0
	c-1.2,0.2-2.4,0.4-3.7,0.8c-0.2,0.1-0.5,0.1-0.7,0.2c-0.7,0.2-1.4,0.4-2.3,0.7c-2.8,0.9-5.6,1.1-8.2,2.6l-3.5-0.5
	c0,0-2.3-8.7-3.6-12.7s-3-7.6-4.8-8.8c-1.8-1.2-8.9-5.9-8.9-5.9s-1.4-6.4-2.7-8.3c-1.4-1.9-3.7-6.6-2.1-9.3c1.6-2.6,4.3-9.3,4.3-9.3
	s2.3-3.8,0.5-7.4c-1.8-3.6-4.1-7.4-4.1-7.4l-2.5-3.6c0,0,6.7-0.9,8.9-0.7s4.3,1,6.5,2.1c2.3,1,3,2.1,7,1.6c4-0.5,4.8-1,5-3.9
	c0.3-2.9-0.5-3.1,1-4.9c1.5-1.8,2.8-5.7,5.5-4.2c2.8,1.6,2.8,1.3,5,1c0.5-0.1,1.1,0,1.7,0c2,0.3,4.4,1.3,5.3,2.5
	c1.3,1.5,0,2.3,3.8,3.1c3.8,0.8,9.8,3.4,12.3,1.8c2.5-1.6,4.3-3.1,7-3.4c2.8-0.3,4-1,3.8-2.8c-0.3-1.8-0.5-3.1,3-2.6
	c3.5,0.5,6.3,0.3,7.8,2.1c1.5,1.8,2.3,3.4,4,2.1c1.8-1.3,3.8-0.3,4.8,0.8c1,1,3-1.3,5-2.3s5-1,6,1c1,2.1,4,4.1,4,4.1l5.5,0.8
	c0,0,2.3-4.7,3.5-6s1.5-2.1,5.3-1.6c3.8,0.5,10.3,0.5,13,1c2.8,0.5,7.8,1,10-0.3s3.8-2.1,5.5-0.8c1.8,1.3,3.5,2.1,5-0.3
	c1.5-2.3,3-2.8,6-2.3c3,0.5,9.3-2.6,11.3-4.2c2-1.5,6-2.8,10-3.4c4-0.5,5.3-1,6.8-2.1s7.5-2.3,8.8-3.6c1.3-1.3,3.3-2.3,5.5-2.6
	s3.8-1.3,5.8-3.4c2-2.1,2.5-5.5,7.3-4.7s1.5-2.6,5.5-2.6s4.8-1,4.8-1l2.5-3.1c0,0,0,0,0,0c0.2-0.1,3-1.3,4.5-1.3c1.5,0,4.3,1,4.3,1
	s2.8,0.5,5.8,3.9c3,3.4,3.8,3.6,6,3.6s4.5-0.8,6.3,0.3s6,3.4,4.5,4.9c-1.5,1.5-1.3,4.7-1.3,4.7s3.5,1.3,4.8,2.1
	c1.3,0.8,2.8,2.3,2,3.6c-0.8,1.3-1.5,3.4-1.5,3.4s5.8,5.2,7,6c1.3,0.8,5-0.3,6.8-0.3s2.5,1.3,2.5,2.8c0,1.6-1,5.5,1.5,6.8
	s9.8,3.9,9.8,3.9s1.5,1.5,3.3,2.3c1.8,0.8,4.3,1.3,6.8,0.5s4-1.8,6.5-0.3c2.5,1.6,3.3,1,4.5,0.3s3.8,0.5,3.8,0.5l3.8,1.3
	c0,0,5.8,3.4,7.3,3.4s3-0.5,3-0.5l1.3,1.6l2.5,0.3c0,0-0.1,0.6,0.4,2l-0.1,0l-4.8,5.7l0.5,5.7h-3.3l-6,6v4.4c0,0-5.8-1.8-8-2.9
	c-2.3-1-3.8-2.6-5.3-4.1c-1.5-1.6-4.8-2.3-6.5-1.6s-3.3,3.1-6.3,4.9c-3,1.8-2,5.2-1.5,6.5c0.5,1.3,0.8,4.4,0.8,5.7
	c0,1.3,0.5,10.9,0,11.9s-1.8,6-1.5,7.8c0.3,1.8-1,4.2-2,6c-1,1.8-2.5,7.8-3,10.4c-0.5,2.6-1.3,3.6-4,4.9c-2.8,1.3-1.5,3.1-0.3,4.7
	s3.8,2.1,3.8,2.1s12,0.3,14,0.3s5.3-0.3,6.8-0.5c1.5-0.3,6.3-2.6,8-3.6s5.8,0.8,5.8,0.8s6.5,6.5,7.5,7.5s0.8,2.1,0.3,4.1
	s1.8,2.9,3,3.4c1.3,0.5,2.3,1,3,2.1c0.8,1,2,5.5,2.8,8.3c0.8,2.9-0.3,9.9-1.8,11.9c-1.5,2.1-0.8,4.2-0.3,6.2c0.5,2.1,3,2.9,3,2.9
	s1.8,0.8,3.5,1c1.8,0.3,1.5,0.8,1.5,2.1c0,1.3,0.5,3.1,0.5,3.1l6,12.2c0,0-2.5,6.5-5,9.3c-2.5,2.8-1.3,6.2-1.3,6.2l-2.8,9.3
	c0,0,4.3,5.7,5.8,7.5c1.5,1.8,2,2.9,3,5.5c1,2.6,2,6.5,2,9.6s-3.8,8.4-3.8,8.4v0l-1.2-0.6c-0.6-0.1-5.6,0-5.7,0
	c-2.6,0.1-5.2,0.2-7.8,0.3c-2,0.2-5.4-0.4-7.6-0.6c-0.9-0.1-2.6-0.2-3.6,0.2c-0.4,0.1-4.9,2.2-5.2,2.3c-1,0.6-1.5,1.1-2.5,1.8
	l-5,3.5c-1.1,0.8-2.4,1-3.6,1.6l-1.1,0.9c-0.2,0.2-0.4,0.3-0.6,0.5c-0.4,0.5-0.7,1.3-1.1,1.8c-0.3,0.4-3.3,4.3-3.6,4.5
	c0,0-1.3,0.6-1.4,0.7l-1.2-0.2l-2.4-0.5c-0.8-0.3-1.9-1-2.7-1.5c-0.2-0.1-0.3-0.2-0.5-0.3c-0.2-0.1-2.4-0.9-2.5-0.9
	c-1.2-0.8-2.3-2.1-3.4-3c-1.1-0.9-2.7-1.7-4-2.3l-0.7,0.1l-1.4,0.1c-1.2,0.6-2.3,1.8-3.5,2.4c-0.1,0-3.8,1.5-3.8,1.5
	c-0.2,0-4.9-0.1-5.6-0.1c-1-0.7-2.1-1.3-3-2.1c-1-0.8-1.8-1.9-2.8-2.6l-2.4-1.6c-0.5-0.3-0.7-0.5-1.2-0.8c-0.7-0.4-2.4-0.6-3.2-0.7
	c-1.5-0.1-3.4-0.1-4.9,0.2c-1.3,0.3-3.6,1.7-4.7,2.3c-1.5,0.8-3,1.5-4.5,2.2c-1,0.5-2.1,1.3-3.1,1.8c0,0-1.1,0.2-1.2,0.2
	c-1,0.2-2.3-0.3-3.4-0.3v0c-1.3-1.8-1.9-3.9-2.5-6c-0.2-0.8-0.4-1.6-0.7-2.4c-0.2-0.5-0.3-1-0.6-1.6c-0.3-0.8-0.7-1.5-1.1-2.2
	c-0.5-0.7-0.9-1.3-1.4-1.9c-0.1-0.1-0.2-0.3-0.3-0.4c-0.3-0.4-0.6-0.7-0.9-0.9c-0.2-0.2-0.4-0.4-0.6-0.5c-0.3-0.2-0.6-0.4-0.9-0.6
	c-0.2-0.1-0.4-0.2-0.6-0.3c-1.7-0.8-3.6-1-6.3-2.3c-0.7-0.3-1.3-0.7-1.9-1.2c-0.3-0.2-0.6-0.4-0.8-0.7c0,0,0,0,0,0
	c-0.6-0.4-1.1-0.9-1.7-1.3c-0.9-0.6-1.8-1.1-2.9-1.3c-5.1-1-19,5-24.2,6.6c-0.9,0.3-1.9,0.5-2.8,0.7c-2.4,0.5-4.9,0.9-7.3,1
	c-0.5,0-1,0.1-1.5,0.1l1.7-3.7c-1.2-4.8-3.9-9.4-5.9-13.9c-0.3-0.7-0.6-1.4-0.9-2.2v0c-0.3-0.8-0.6-1.5-1-2.2
	c-0.2-0.5-0.5-0.9-0.7-1.4c-0.3-0.4-0.5-0.8-0.8-1c-0.1-0.2-0.3-0.3-0.5-0.4c-1.8-1.3-4.2-0.8-6.3,0.2c-0.6,0.3-1.2,0.6-1.7,0.9
	c-0.1,0.1-0.3,0.2-0.4,0.3c-0.3,0.2-0.5,0.3-0.8,0.5c-0.1,0.1-0.2,0.2-0.3,0.3c-2.5-0.6-4.3-0.9-6.3-2.2c-0.3-0.2-0.6-0.4-0.8-0.6
	c0.2-0.3,0.4-0.6,0.7-0.9c0.3-0.3,0.6-0.5,0.9-0.8c0.4-0.2,0.7-0.4,1.1-0.6c1.7-0.9,3.8-1.4,5.3-2.1c0.2-0.1,0.3-0.1,0.5-0.2
	c0.2-0.1,0.5-0.2,0.7-0.4c0.5-0.3,0.9-0.5,1.3-0.8c1.4-1,2.6-2.2,3.7-3.3c1-0.9,2-1.8,3.2-2.4c0,0,0,0,0,0l0.1-1
	c0.5-0.3,1.3-1,1.4-1.6l-0.1-1c-1.2-2.8-4.9-2.6-7.8-2.8c-0.2,0-0.5,0-0.7-0.1c-0.1,0-0.2,0-0.3,0c-0.5-0.1-1-0.2-1.4-0.4l-1.2-1.6
	c-2-0.3-4.1-0.5-6.2-0.8c0,0-0.1-0.1-0.1-0.2c0,0,0,0,0,0c-0.1-0.2-0.3-0.5-0.5-0.8c-0.2-0.3-0.4-0.7-0.6-1.1
	c-0.1-0.3-0.3-0.6-0.5-0.9c-0.2-0.3-0.3-0.6-0.5-0.9c-0.1-0.2-0.2-0.3-0.3-0.5c-0.2-0.3-0.4-0.7-0.6-1c-0.3-0.5-0.6-1-0.8-1.5
	c-0.2-0.3-0.4-0.7-0.5-1c-0.5-1-1-1.9-1.4-2.6c-0.3-0.6-0.6-1-0.8-1.2c0,0,0-0.1-0.1-0.1c0,0-0.1-0.1-0.1-0.1
	c-0.6-0.3-1.3-0.8-2-1.2c-0.7-0.4-1.4-0.9-2.1-1.3c-0.5-0.3-1.1-0.6-1.6-0.9c-0.6-0.3-1.1-0.6-1.6-0.8c-0.2-0.1-0.4-0.2-0.5-0.2
	c-0.2-0.1-0.4-0.1-0.5-0.2c-0.1,0-0.3-0.1-0.6-0.1c-0.6-0.1-1.6-0.1-2.4-0.1c-0.7,0-1.4-0.1-1.6-0.1c-0.4-0.1-3.9-2.2-5.4-2.8
	c-0.4-0.5-0.7-1-1-1.4c0,0,0,0,0,0c-0.3-0.4-0.5-0.8-0.8-1.2c-0.6-1.1-1.1-2-1.8-2.9c-0.2-0.3-0.4-0.5-0.6-0.8
	c-0.1-0.2-0.3-0.3-0.4-0.5c-0.1-0.1-0.1-0.2-0.2-0.3c-0.1-0.1-0.2-0.2-0.3-0.3c-0.2-0.2-0.4-0.4-0.6-0.5c-0.4-0.4-0.9-0.8-1.4-1.1
	c-0.1-0.1-0.3-0.3-0.5-0.4c-0.1-0.1-0.1-0.2-0.2-0.3c-0.1-0.2-0.3-0.4-0.4-0.6c0,0,0,0,0,0c-0.1-0.2-0.2-0.4-0.3-0.6
	c0-0.1-0.1-0.2-0.1-0.3c0.3-0.8,0.3-1.5,0.1-2.1c-0.1-0.3-0.2-0.5-0.3-0.8c-0.1-0.1-0.2-0.3-0.2-0.4c-0.3-0.4-0.6-0.7-0.9-1
	c-0.1-0.1-0.2-0.2-0.3-0.3c-0.2-0.2-0.5-0.4-0.7-0.7c-0.2-0.2-0.5-0.4-0.7-0.6c-0.3-0.3-0.6-0.6-0.8-1c0.1-1.8,0.4-4.4-1-5.8v0
	l-5.9-2.2c-1-1.6-2.1-3.2-3.3-4.7v0l-6.5-2.7c-0.1-0.1-0.1-0.1-0.1-0.2c-0.4-0.8-0.3-2.5-0.3-4c0-0.7,0-1.3-0.1-1.8v0l-1.6-1.5
	c-1.6,0-3.3,0-4.8,0.4c-0.1,0-0.3,0.1-0.4,0.1c-0.2,0.1-0.4,0.1-0.6,0.3c-0.1,0-0.2,0.1-0.2,0.1c-0.3,0.2-0.6,0.4-0.9,0.6
	c0,0,0,0,0,0c0,0.1,0,0.1,0,0.2c0,0.1,0,0.2,0,0.3c-0.1,0.4-0.2,0.8-0.3,1.3c0,0.2-0.1,0.4-0.1,0.6c-0.5,2.2-1.4,5-2.6,6
	c-0.1,0.1-0.2,0.2-0.4,0.2l-1.2,0.1c-0.1-0.1-0.2-0.2-0.3-0.3c-0.2-0.2-0.5-0.4-0.7-0.6c0,0,0,0,0,0c-0.1-0.1-0.1-0.1-0.2-0.1
	c0,0-0.1-0.1-0.1-0.2c-0.3-0.3-0.5-0.6-0.8-0.8c-0.1-0.1-0.1-0.2-0.2-0.2c-1.2-1.2-2-1.4-2.5-1.5c-0.1,0-0.3,0-0.4,0
	c-0.2,0-0.4-0.1-0.6-0.3l-3.2-2.6c0-0.9,0-1.5-0.1-2.1c0-0.1-0.1-0.3-0.1-0.4c0-0.1-0.1-0.3-0.2-0.4c0-0.1-0.1-0.2-0.2-0.3
	c-0.1-0.2-0.3-0.4-0.4-0.6c-0.1-0.1-0.2-0.2-0.3-0.3c-0.5-0.6-1.2-1.1-2-1.9c-0.1-0.1-0.3-0.3-0.4-0.4l-0.2-1.3l1-2.8
	c0.1-0.1,0.2-0.2,0.3-0.2c0.2-0.2,0.4-0.3,0.6-0.4c0.1-0.1,0.2-0.1,0.3-0.2c0.9-0.5,1.9-1,2.9-1.6c0.5-0.3,1-0.6,1.4-1v0
	c-0.1-0.5-0.1-1-0.2-1.5c-0.1-0.5-0.1-1-0.2-1.5c-0.2-1.4-0.3-2.8-0.2-4l0.5-0.9c1.2-0.5,2.1-1,3-1.7c0.3-0.2,0.5-0.5,0.7-0.8
	c0.2-0.2,0.3-0.4,0.5-0.6c0.1-0.1,0.2-0.2,0.2-0.3c0,0,0,0,0,0l-0.6-4l-1.7-1.6l-8.7-0.2c-0.2,0.2-0.3,0.4-0.5,0.6
	c-0.1,0.2-0.2,0.3-0.3,0.5c-0.5,0.8-0.9,1.6-1.5,2.3c-0.5,0-1-0.3-1.4-0.6c-0.1-0.1-0.2-0.2-0.3-0.3c-0.1-0.1-0.3-0.3-0.5-0.4
	c-0.1-0.1-0.3-0.2-0.5-0.3c-0.3-0.1-0.8-0.2-1.2-0.3c-0.3,0-0.6-0.1-0.9-0.2c-0.1,0-0.2-0.1-0.3-0.1c-0.6-0.3-1.1-0.6-1.7-1
	c-0.2-0.2-0.5-0.3-0.7-0.5c-0.4-0.3-0.9-0.6-1.4-0.9C660.5,650.1,659.9,649.8,659.3,649.6z"/>
<path fill="#666666" stroke="#FF1D25" stroke-width="3" d="M643.9,555.5c1.3,3.1,0,2.6-1.3,6.5c-1.3,3.9,1.3,8.3,1.3,8.3l-0.1,0.6
	c-0.6-0.1-1.2-0.1-1.7,0c-2.3,0.3-2.3,0.5-5-1c-2.8-1.6-4,2.3-5.5,4.2c-1.5,1.8-0.8,2.1-1,4.9c-0.3,2.8-1,3.4-5,3.9
	c-4,0.5-4.8-0.5-7-1.6c-2.3-1-4.3-1.8-6.5-2.1s-8.9,0.7-8.9,0.7l-4.6-1.4c0,0-4.8-2.4-6.8-2.4s-4.5,0-4.5-3.1c0-3.1,1-4.7-3-6.2
	c-4-1.6-8.5-3.1-9-1s-0.5,3.1-3,5.2c-2.5,2.1-4.5,3.1-6.5,2.1s-6,0.5-6,0.5s-3.5,4.7-6.5,3.6c-3-1-6-1.5-8.5,0c-2.5,1.6-5,3.6-7,5.2
	c-2,1.5-3.5,2.6-3.5-2.6c0-5.2-2-8.3-4.5-7.3s-10.5,2.1-12.5,1s-3-3.1-5.5-2.6c-2.5,0.5-6,0.5-6,3.1c0,2.6,0,4.7,0,4.7l-4,0.5
	c0,0,0-6.2-3-6.2s-5.5,0.5-8-2.6c-2.5-3.1-4-3.6-6.5-3.6s-5-2.6-7-4.1c-2-1.6-3.5-3.1-3.5-5.2c0-2.1-0.5-6.8-2.5-8.3
	c-2-1.6-8.5-5.2-10.5-2.6c-2,2.6-1.5,7.3-6.5,3.6c-5-3.6-7-3.6-9.5-2.1c-2.5,1.6-6.5,0.5-6.5,0.5h-6l-6.5-2.6l-0.7,0.1
	c-0.6-4-1.3-8-1.8-12c-0.1-1.1,0.4-2.5,0.3-3.6c-0.7-5.6-2.3-10.3-1.5-16.1c-1.3-3.1-3.4-5.4-5.2-8.1c-2.4-3.8-4.1-8.3-5.8-12.7
	l2.6-0.7l-3-8.8c0,0,2.8-0.8,4-1.5s3.3-1,4.5-1s3.3,0.5,3.5-1.3s0-3.5,1.5-3s4,0,5.3-0.3s2-1.8-0.3-2s-5-1-5-1l-1.3-2.3l3.8-0.8
	l2.3-2.3c0,0,6,0.8,7.5,1.8s4,0.3,5-0.3s3.5,0.3,4.8-0.8s1.5-1.3,3.3-1s5.3,0.3,5.3,0.3s3.8-1.5,5-1.5s3.5-0.8,3.5-0.8s2.3-3,2.3-4
	s2-1,2-1s3,0,3.8,1.5s4,2.3,5,2s3-1.8,3-1.8l2.8-0.5h2.5c0,0,1.8,1.5,3,1.5s5.8,0.5,7.3,0.5s4.5,1.5,5,2.5s1,2.8,1,2.8
	s6.5,0,7.5-0.3s2.3,0,3.3,0.5s3.3,2.3,3.3,2.3s0.8,1.5,0.8,2.8s0.3,4,0.3,4s11,0.3,12.3,0.3s3.8,0,5-0.8s2.5-2.5,2.5-2.5l3-1.5
	l0.3,0c0.1,2.2,0.2,6.5,0.2,7.3c0,1-1.3,2.8-2.3,3.9s-0.5,1.6,1,3.1c1.5,1.6,1.8,2.1,1.8,3.9c0,1.8,1.8,2.1,5.3,2.8s6.5,1.8,8.3,2.1
	s4.8,3.6,4.8,3.6s3.5-1,5.5-0.5c2,0.5,1.8-0.8,3-1.3c1.3-0.5,0.3-4.9,0.3-4.9h6.3c1.8,0,2.3,1.3,5,1.3s2.8,1.6,3.5,3.1
	c0.8,1.6,1.3,2.9,1.8,5.2s0.8,5.2,0.8,8c0,2.8,1,3.4,1.8,4.4s3.5,4.2,3.5,4.2s2.5-1.3,3.8-2.3s2.3-1,3.5-0.5c1.3,0.5,7,6,8,7.5
	c1,1.6,1.5,2.1,3.8,2.8c2.3,0.8,4.3,1,6,1s2.5,0.5,3.8,1.3s3.8,2.3,4.8,3.4c1,1,3.3,0,4.8-0.5c1.5-0.5,3-0.8,4,0s1.3,1.3,4,0.3
	s3,0.8,4.8,2.8c1.8,2.1,1.8,7.3,2.8,8.8c1,1.6,2,3.9,0.5,5.2S642.6,552.4,643.9,555.5z"/>
<path fill="#666666" stroke="#FF1D25" stroke-width="3" d="M425.9,545.9l6.5,2.6h6c0,0,4,1,6.5-0.5c2.5-1.6,4.5-1.6,9.5,2.1
	c5,3.6,4.5-1,6.5-3.6c2-2.6,8.5,1,10.5,2.6c2,1.6,2.5,6.2,2.5,8.3c0,2.1,1.5,3.6,3.5,5.2c2,1.5,4.5,4.1,7,4.1s4,0.5,6.5,3.6
	c2.5,3.1,5,2.6,8,2.6s3,6.2,3,6.2l4-0.5c0,0,0-2.1,0-4.7c0-2.6,3.5-2.6,6-3.1c2.5-0.5,3.5,1.6,5.5,2.6s10,0,12.5-1s4.5,2.1,4.5,7.3
	c0,5.2,1.5,4.1,3.5,2.6c2-1.6,4.5-3.6,7-5.2c2.5-1.5,5.5-1,8.5,0c3,1,6.5-3.6,6.5-3.6s4-1.6,6-0.5s4,0,6.5-2.1
	c2.5-2.1,2.5-3.1,3-5.2s5-0.5,9,1c4,1.6,3,3.1,3,6.2c0,3.1,2.5,3.1,4.5,3.1s6.8,2.4,6.8,2.4l4.6,1.4l2.5,3.6c0,0,2.3,3.8,4.1,7.4
	c1.8,3.6-0.5,7.4-0.5,7.4s-2.7,6.6-4.3,9.3c-1.6,2.6,0.7,7.4,2.1,9.3c1.4,1.9,2.7,8.3,2.7,8.3s7.1,4.7,8.9,5.9
	c1.8,1.2,3.4,4.7,4.8,8.8s3.6,12.7,3.6,12.7l-1.2,0.7c-0.3,0.6-1,2.1-1.5,2.5c0,0-0.1,0.1-0.1,0.1c-0.2,0.2-0.5,0.3-0.7,0.5
	c-0.4,0.2-0.8,0.4-1.1,0.6c-0.4,0.2-0.7,0.4-1,0.7c-0.1,0.1-0.1,0.1-0.2,0.2c-0.1,0.1-0.1,0.1-0.2,0.2c-2,2.2-0.2,5.5-1.2,8.1
	c-0.8,2.1-2,4.2-3,6.2l0.7,1l0.3,3.7c-0.5,0.1-0.9,0.3-1.3,0.5c-0.3,0.2-0.5,0.4-0.8,0.6c-0.9,0.7-1.6,1.8-2.1,2.8
	c-0.2,0.5-0.4,0.9-0.6,1.3c-0.1,0.1-0.1,0.3-0.2,0.4l-3.1-0.3l-0.5,0.4L609,683v0l-0.3,1.7c-0.1,0.2-0.3,0.4-0.4,0.6
	c-0.4,0.5-0.9,0.5-1.3,0.7c-0.1,0-0.2,0-0.3,0.1c-0.2,0.1-0.4,0.2-0.6,0.3c-0.1,0.1-0.2,0.2-0.3,0.3c-0.4,0.4-0.8,0.9-1.2,1.9
	c-0.1,0.3-0.3,0.6-0.4,0.9c0,0,0,0,0,0c-0.1,0.3-0.3,0.7-0.4,1.1l0,0c0.3,0.6,0.8,1.4,1.3,2.3c1.3,2.3,2.8,5.4,1.1,7l-1.5,0.1h-0.1
	l-2.2-1.8c-0.6-0.1-1.3,0-2,0.2c-0.4,0.1-0.7,0.2-1.1,0.3c-1.3,0.4-2.7,0.9-3.7,1.3c-0.5,0.2-1,0.3-1.2,0.3c-0.4,0-0.8,0-1.3,0
	c-0.2,0-0.3,0-0.5,0c-1.5,0-3.4-0.1-4.8-0.5c-0.5-0.1-0.8-0.3-1.1-0.5c-0.2-0.2-0.4-0.4-0.6-0.5c-0.5-0.5-0.9-1.1-1.4-1.6
	c-0.1-0.1-0.2-0.2-0.3-0.3c-0.2-0.2-0.4-0.3-0.6-0.4c-0.2-0.1-0.4-0.3-0.5-0.4c-0.2-0.1-0.3-0.2-0.5-0.3c-0.4-0.3-0.8-0.5-1.1-0.6
	c-0.4-0.3-0.7-0.5-1-0.8c-0.5-0.5-0.9-1.3-1.6-2.8v0c-2.3-0.1-4.8,0-7.1,0.3c-0.6,0.1-1.1,0.2-1.7,0.3c-0.2-0.1-0.4-0.2-0.5-0.3h0
	c-0.2-0.1-0.4-0.2-0.6-0.3c0,0,0,0,0,0c-0.3-0.2-0.6-0.3-0.9-0.4c-0.1-0.1-0.2-0.1-0.3-0.2c-0.7-0.4-1.4-0.8-2-1.3
	c-0.1-0.1-0.1-0.2-0.2-0.2c-0.8,0-1.6,0-2.5,0.2c-0.5,0.1-1,0.2-1.5,0.3c-0.1,0-0.3,0.1-0.5,0.1c0,0,0,0-0.1,0
	c-0.1,0-0.2-0.1-0.4-0.1c-0.6-0.2-1.6-0.6-1.7-0.7c-0.1-0.1-0.2-0.1-0.2-0.2c-0.2-0.2-0.3-0.4-0.5-0.6c-0.2-0.3-0.4-0.6-0.6-0.9
	c-0.1-0.2-0.3-0.4-0.5-0.5c-0.2-0.2-0.4-0.3-0.6-0.5c-0.2-0.1-0.4-0.2-0.7-0.3c-0.7-0.3-1.5-0.5-2.3-0.9c-1.2-0.7-2.2-2.1-3.5-2.7
	c-1.9-1-4.1,0.5-5.9,0.3c-0.5,0-2.8-1.2-3.5-1.3c-0.4-0.1-0.8-0.1-1.3-0.1c-1,0-2.1,0-3.2,0.1c-0.6,0-1.1,0.1-1.7,0.2
	c-0.9,0.1-1.7,0.2-2.5,0.2c-0.5,0-0.9,0-1.3,0.1c-0.2,0-0.3,0.1-0.5,0.2c-0.1,0-0.3,0.1-0.4,0.2c-0.1,0-0.2,0.1-0.3,0.2
	c-0.3-1.1-0.5-2-0.8-2.6c-0.1-0.3-0.2-0.5-0.3-0.7c-0.1-0.3-0.3-0.5-0.4-0.7c-0.1-0.1-0.2-0.2-0.3-0.3c-0.3-0.3-0.5-0.4-0.8-0.5
	c-0.1,0-0.2-0.1-0.3-0.1c-0.1,0-0.3-0.1-0.5-0.2c-0.1,0-0.2-0.1-0.3-0.2c-0.2-0.1-0.3-0.3-0.5-0.5c-0.2-0.3-0.5-0.6-0.8-1.1v0
	c-0.4,0-2.7-0.2-3-0.1c-0.2,0-0.4,0.1-0.6,0.1c-0.2,0-0.4,0.1-0.6,0.2c-0.2,0.1-0.4,0.2-0.6,0.3c-0.1,0-0.2,0.1-0.3,0.2
	c-0.2,0.1-0.3,0.1-0.5,0.2c-0.6,0.3-1.2,0.6-1.9,0.8c-0.1,0-0.2,0-0.3,0.1c-0.5,0.1-1.6,0.3-2.9,0.5c0,0-0.1,0-0.1,0
	c-0.3,0-0.5,0.1-0.8,0.1c0,0-0.1,0-0.1,0c-0.2,0-0.4,0-0.6,0.1c-0.4,0.1-0.8,0.1-1.1,0.2c-1,0.1-1.8,0.2-2.2,0.2l-0.5-2.3l-1.6-0.3
	l-2.3,1.4c-1.2-0.3-2.4-0.6-3.6-0.8c-1.8,0.4-4,2-5.8,3.5c-0.3,0.3-0.7,0.5-1,0.8c-0.3,0.3-0.6,0.5-0.9,0.7
	c-0.1,0.1-0.3,0.2-0.4,0.3c-0.8,0.6-2.4,0.1-4-0.7c-0.4-0.2-0.7-0.4-1.1-0.6c-0.4-0.2-0.7-0.4-1.1-0.6c-0.5-0.3-1-0.6-1.4-0.8
	c-0.1-0.1-0.3-0.2-0.4-0.2c-0.2-0.1-0.4-0.3-0.6-0.3c-0.7-0.3-1.7-0.3-2.8-0.3c-0.2,0-0.4,0-0.6,0c-1,0-2,0-2.8-0.1
	c-0.1-0.1-0.1-0.1-0.2-0.2c-0.1-0.2-0.2-0.4-0.3-0.6c0-0.1-0.1-0.2-0.1-0.4c-0.2-0.7-0.3-1.4-0.2-1.9l-2.9-3l-5.3,0.2h0
	c-0.2,0.3-0.4,0.7-0.6,1c-0.1,0.1-0.2,0.2-0.3,0.3c-0.2,0.2-0.4,0.4-0.5,0.7c-0.8,0.9-1.8,1.8-3,2.6c-0.2,0.1-0.4,0.3-0.6,0.4
	c-1.6,1.1-3.4,2-5,2.5c-0.2,0.1-0.4,0.1-0.6,0.2c-0.1,0-0.3,0.1-0.4,0.1c-0.2,0.1-0.4,0.1-0.6,0.1v0c-0.2,1.4-1.4,3.7-2.7,4.4
	l-0.1,2.5c-1.6,1.6-3.3,3.8-4.2,5.9c-0.2,0.1-0.3,0.1-0.5,0.2c-0.9,0.3-1.8,0.7-2.7,0.9c-0.5,0.2-1.1,0.3-1.6,0.5s-1.1,0.3-1.6,0.5
	h0c-0.1,0.9-0.3,1.7-0.7,2.3c-0.2,0.3-0.4,0.6-0.6,0.9c-0.3,0.3-0.5,0.5-0.8,0.8c-1.1,1-2.6,1.7-3.7,2.5l-1.1,0
	c-0.4-0.5-0.8-1-1.3-1.6c-0.7-1-1.3-2-1.7-3c-1.1-0.4-2.1-0.9-3.1-1.3c-0.6-0.3-1.3-0.5-1.9-0.6l-0.6-2.3c-0.2-0.1-0.8-0.4-1.5-0.8
	c0,0,0,0,0,0c-1.4-0.7-3.5-1.8-5-2.5c0,0,0,0,0,0c-0.7-0.3-1.2-0.6-1.5-0.7c-0.1,0-0.1,0-0.2,0c-1.8-0.3-4.4,0.2-6.2,0.2
	c0,0-0.1,0-0.3,0c-0.1,0-0.3-0.1-0.4-0.1c-0.8-0.2-2-0.5-2.4-0.6l-0.5-1l0.6-1.6l1.2-0.9v0l0.2-1.3l-0.7-1.5h0l-2.4-1.1
	c-3.6,1.8-7.4,3.6-11.3,4.3c-0.6,0.1-1.1,0.2-1.7,0.3c-0.3-0.1-0.6-0.2-0.9-0.3c-0.3-0.1-0.7-0.3-1-0.5c-0.7-0.4-1.5-0.9-2.3-1.4
	c-0.8-0.5-1.6-1-2.3-1.5c-0.7-0.5-1.3-0.9-1.7-1.3c-0.3-0.2-0.5-0.4-0.8-0.7c-0.4-0.4-0.8-0.8-1.2-1.2c-0.1-0.1-0.3-0.3-0.4-0.4
	c-0.3-0.3-0.5-0.5-0.8-0.6c-0.3-0.2-0.6-0.4-1-0.5c-0.4-0.2-0.7-0.3-1.1-0.5c-0.1-0.1-0.3-0.1-0.4-0.1c-0.4-0.2-0.8-0.3-1.2-0.4
	c0,0,0,0,0,0c-0.5-0.2-1.1-0.3-1.6-0.5c-0.3-0.1-0.5-0.2-0.7-0.2l-1-1.6c-1.7-1.1-4.4-0.6-5.1-1c-0.2-0.1-0.6-0.3-0.9-0.5
	c-0.2-0.1-0.5-0.3-0.7-0.4c-0.1,0-0.3-0.1-0.4-0.2c-0.2-0.1-0.4-0.1-0.5-0.1l0.1-0.6c0.3-2.1,1.9-3.1,2.9-4.9
	c2.5-4.4,3.5-10.3,3.9-15.3l-0.7-1.6c1.2-9.3,9.1-14.9,15.3-20.7l1.5-0.3l2,1.9l1.7,0c2.7-0.1,3.7-1.7,5.2-3.6
	c1.1-1.4,2.7-3,3.6-4.6c0.8-1.3,1-3.2,1.8-4.6c0.9-1.6,2.5-2.8,3.4-4.4c2.8-4.5,3.8-10.4,6-15.3c0.5-1.2,1.8-2.3,2.4-3.4
	c2.5-4.5,3.5-10.8,4.9-15.8l0.3-0.7c-0.9-2.2,0.5-4.7,0.7-6.8c0.3-3.3,0.5-7.2,0.4-10.5c0-5-0.7-9.9-1.4-14.8L425.9,545.9z"/>
<path fill="#666666" stroke="#FF1D25" stroke-width="3" d="M83.7,10.2c0.2,0,0.4,0.1,0.6,0.1c0.7,0.2,1.4,0.6,2,1
	c0.6,0.4,1.1,0.7,1.7,0.9c0.1,0,0.4,0.1,0.9,0.2c0.3,0,0.7,0.1,1.1,0.1c0.4,0,0.8,0.1,1.3,0.1c0.3,0,0.6,0.1,1,0.1
	c0.3,0,0.7,0.1,1,0.1c1.3,0.1,2.8,0.2,3.9,0.3c0.2,0,0.3,0,0.5,0c1.3,0.1,2.2,0.1,2.3,0.1c0.1,0,0.3-0.1,0.6-0.3
	c0.2-0.1,0.4-0.2,0.6-0.4c0.5-0.4,1.1-0.8,1.7-1.3c0,0,0,0,0,0c0.7-0.5,1.2-1,1.4-1.2c0.4,0.2,0.9,0.5,1.3,0.8
	c0.5,0.4,1.1,0.7,1.6,1.1c0.2,0.1,0.4,0.3,0.6,0.4c0.2,0.1,0.5,0.3,0.7,0.4c0.2,0.1,0.3,0.2,0.5,0.2c0.1,0.1,0.2,0.1,0.3,0.1
	c0.4,0.2,0.8,0.3,1.3,0.4c0.4,0.1,0.8,0.1,1.2,0.1c0.2,0,0.4,0,0.6,0c0.2,0,0.4,0,0.6,0c1.4,0.1,2.7,0.3,4,1.7
	c0.1,0.1,0.2,0.2,0.3,0.3c0,0,0,0,0,0c0.1,0.2,0.3,0.4,0.4,0.6c0.3,0.5,0.6,1,1,1.6v0c0.1,0.1,0.4,0.2,0.7,0.3
	c0.5,0.2,1.3,0.4,2.1,0.7c0.3,0.1,0.6,0.2,1,0.3c0.3,0.1,0.5,0.2,0.8,0.3c0.5,0.2,1.1,0.3,1.6,0.5c0.1,0,0.3,0.1,0.4,0.1
	c0.3,0.1,0.7,0.2,1,0.3c1.3,0.4,2.7,0.8,4,1.1c0.3,0.1,0.7,0.2,1,0.3c2.3,0.6,4.1,1.1,4.5,1c0.1-0.1,0.2-0.1,0.4-0.2
	c0.6-0.3,1.5-0.8,2.3-1.2c0,0,0,0,0,0c0.6-0.3,1-0.5,1.1-0.6c1.5-1.4,2.7-3.3,4.1-5v0c0.6-0.8,1.3-1.5,2-2.1
	c0.4-0.4,0.9-0.7,1.4-0.9c2.2-1.1,5.2-1.5,8.4-4.1c2.7-0.1,4.3,0.5,5.3,1.4c0.1,0.1,0.2,0.2,0.3,0.3c0.7,0.7,1.1,1.6,1.5,2.4
	c0.1,0.2,0.2,0.4,0.3,0.7c0.3,0.7,0.6,1.3,1,1.9c0.2,0.3,0.4,0.6,0.7,0.8c0.2,0.2,0.4,0.3,0.6,0.5c0.2,0.1,0.3,0.2,0.5,0.3
	c0.3,0.2,0.7,0.3,1,0.4c0.1,0,0.1,0.1,0.2,0.1c0.2,0.1,0.4,0.1,0.6,0.2c0.3,0.1,0.6,0.1,0.9,0.1c0.7,0.1,1.4,0.1,2.1,0.2
	c1.1,0.1,2.2,0.1,3.2,0.3c0.2,0,0.4,0.1,0.7,0.2c0,0,0.1,0,0.1,0.1c0.1,0.1,0.3,0.1,0.4,0.2c0.1,0,0.2,0.1,0.3,0.1
	c0.2,0.1,0.3,0.1,0.5,0.2c0.1,0,0.1,0.1,0.2,0.1c0.2,0.1,0.4,0.2,0.5,0.3c1.5,0.8,3.2,1.8,4.5,2.6c0.2,0.1,0.3,0.2,0.4,0.3
	c0.2,0.1,0.3,0.2,0.5,0.3c0.3,0.2,0.5,0.4,0.7,0.5l0,0c0.1,0.1,0.2,0.2,0.3,0.3c0.4,0.3,0.7,0.7,1.1,1.1c0.3,0.3,0.6,0.5,0.8,0.8
	c2.4,1.7,5.2,2.8,7.9,4c2.1,1,4.2,2,6.1,3.5c4.4-0.2,11.3-1.2,14.9,2.3c0.2,0.1,0.3,0.3,0.5,0.5c0.1,0.2,0.3,0.3,0.4,0.5
	c0.1,0.2,0.1,0.4,0.2,0.5c0.3,1.7-1,3.5-0.7,4.9c0,0.1,0.1,0.3,0.1,0.4c0.2,0.3,0.4,0.5,0.7,0.8c0.2,0.1,0.4,0.3,0.6,0.4
	c0.8,0.4,1.7,0.8,2.7,1.4c0.2,0.1,0.4,0.3,0.6,0.4c0.1,0.1,0.2,0.1,0.3,0.2c0.3,0.2,0.6,0.5,0.9,0.8c0.1,0.1,0.2,0.2,0.3,0.3
	c0.1,0.1,0.2,0.2,0.3,0.3c0.2,0.2,0.4,0.5,0.6,0.7c0.2,0.3,0.4,0.6,0.6,0.9c0.2,0.3,0.4,0.6,0.5,1c0.5,1,0.9,2.2,1.4,3.3h0
	c0.3,0.2,0.6,0.3,1,0.5c0.4,0.1,0.7,0.2,1.1,0.3c0.4,0.1,0.7,0.1,1.1,0.2c1.3,0.1,2.6,0.1,3.9-0.2c0.8-0.2,1.5-0.4,2.1-0.7v0
	c0.3-0.4,0.6-0.9,0.9-1.3c0.1-0.1,0.1-0.1,0.2-0.2c0.1-0.1,0.1-0.2,0.2-0.2c0.1-0.1,0.3-0.3,0.5-0.4c0.1-0.1,0.2-0.1,0.3-0.2
	c0.2-0.1,0.3-0.2,0.5-0.3c0.4-0.2,0.8-0.3,1.3-0.2c1.7,0.3,3,1.8,4.4,2.8c0.4,0.3,0.9,0.6,1.3,0.8c0.7,0.4,1.5,0.7,2.2,1
	c0.5,0.2,0.9,0.5,1.3,0.7c0.2,0.1,0.4,0.3,0.6,0.4c2.2,1.7,3.4,5.6,3.1,8.2c0.9,1.1,3,2.2,5.3,2.9c0.3,0.1,0.5,0.2,0.8,0.3
	c0.1,0,0.2,0.1,0.3,0.1c0.4,0.1,0.9,0.2,1.3,0.3c0.2,0,0.3,0.1,0.5,0.1c2.5,0.6,4.8,0.8,5.9,0.5c0.3-0.1,0.5-0.4,0.8-0.6
	c0.1-0.1,0.1-0.2,0.2-0.3c0.2-0.2,0.3-0.5,0.5-0.7c0.6-1,1.2-2.4,2.2-3.3c0.2-0.2,0.5-0.4,0.8-0.6c0.1,0,0.3,0,0.5,0
	c0.7-0.1,1.4-0.1,2.2-0.1c0,0,0,0,0,0c0.5,0,1,0.1,1.4,0.1c0.2,0,0.5,0.1,0.7,0.1c2.2,0.4,4,1.7,6,2.5c5.6,2.2,12.1,3.3,17.3,6.5
	c1.3,0.8,2.8,2.4,4.1,3c1.4,0.6,3.1,0.8,4.8,0.9c0.4,0.1,0.8,0.1,1.2,0.2c1,0.2,2,0.4,2.9,0.9c0.2,0.1,0.4,0.2,0.5,0.3
	c0.5,0.3,1,0.7,1.4,1.2c0.2,0.2,0.4,0.4,0.6,0.7c0,0,0,0,0,0c0.4,0.5,0.8,1,1.2,1.5c0.4,0.5,0.7,1,1.1,1.5c0.2,0.3,0.4,0.5,0.5,0.7
	c2.1,0,3.8-0.2,5.1-0.6c0.1,0,0.2-0.1,0.3-0.1c0.1,0,0.2-0.1,0.3-0.1c0.2-0.1,0.4-0.1,0.5-0.2c0.1,0,0.2-0.1,0.3-0.1
	c0.3-0.1,0.5-0.3,0.7-0.4c0.9-0.6,1.5-1.3,2-2c0.1-0.2,0.3-0.4,0.4-0.6c0.2-0.3,0.3-0.5,0.4-0.8c0.1-0.2,0.2-0.4,0.3-0.6
	c0.1-0.2,0.2-0.4,0.3-0.5c0.1-0.3,0.3-0.5,0.5-0.7c0.1-0.2,0.3-0.3,0.4-0.5c0.1-0.1,0.2-0.2,0.3-0.3c0-0.1,0.1-0.1,0.2-0.2
	c0-0.1,0.1-0.1,0.1-0.1c0.2-0.1,0.3-0.3,0.5-0.4c0.1-0.1,0.3-0.2,0.4-0.3c0.2-0.1,0.4-0.2,0.7-0.3c0.2,0,0.4,0.1,0.5,0.1
	c0.2,0,0.4,0.1,0.5,0.2c4.9,2.5,4.5-4.4,11.4,2.5c0.1,1.6,0.2,14.4,1.3,15.4v0c0.5,0.3,1.2,0.6,2.1,0.9c1.4,0.4,3.2,0.6,4.8,0.8
	c0.1,0,0.3,0,0.4,0c1.2,0.1,2.3,0.1,2.9,0.1c1.1-0.1,2.3,0.9,3.5,2.2c0.1,0.1,0.2,0.2,0.3,0.3c0.1,0.1,0.3,0.3,0.4,0.5
	c0.1,0.1,0.2,0.2,0.3,0.3c0.1,0.2,0.3,0.3,0.4,0.5c0.3,0.3,0.5,0.6,0.8,0.9c0,0,0,0,0,0c0.3,0.3,0.5,0.6,0.8,0.9
	c0.2,0.2,0.5,0.4,0.7,0.6c0.1,0.1,0.3,0.2,0.4,0.3c0,0,0,0,0,0c0.3,0.2,0.5,0.4,0.8,0.5c0,0,0,0,0,0c0.1,0,0.2,0.1,0.3,0.1
	c0.5,0.2,1,0.5,1.4,0.7c0.3,0.1,0.5,0.2,0.7,0.4c0.4,0.2,0.8,0.4,1.2,0.6c0.8,0.4,1.6,0.8,2.4,1.3c0.9,0.6,1.7,1,2.4,1.4
	c0.6,0.4,1.2,0.8,1.7,1.2c0.1,0,0.1,0.1,0.2,0.2c0.1,0,0.1,0.1,0.2,0.2c0.8,0.8,1.4,1.9,2.1,3.7v0c1.9,0.9,3,1.1,4.1,1.7
	c0.1,0.1,0.2,0.1,0.4,0.2c0.1,0.1,0.2,0.2,0.4,0.3c0.2,0.1,0.4,0.3,0.5,0.5c0.1,0.1,0.1,0.1,0.2,0.2c0.4,0.4,0.8,0.9,1.3,1.5h0
	c0.3,0.1,0.7,0.1,1,0.2c0.5,0.1,1,0.1,1.5,0.2c0.2,0,0.4,0.1,0.6,0.1c0.2,0,0.5,0.1,0.7,0.2c0,0,0.1,0,0.1,0c3.1,1.2,5,5.9,8.3,5.6
	c0.2,0,0.3,0,0.5-0.1c0.1,0,0.2,0,0.3-0.1h0l3.1-4.2c0.3-0.1,0.5-0.1,0.8-0.1c2.8,0,7.4,2.6,9.1,4.3l6-1.3h0
	c0.6-0.9,1.2-2.3,2.1-3.2c0.9-0.9,2.2-1.1,4.2,1.1l0,0c0.7,0.8,1.3,1.5,1.9,2c0,0,0,0,0,0c0.4,0.4,0.7,0.7,1,1
	c1.7,1.7,2.8,2.4,4.1,2.4c1.5,0,2.5-0.4,3.9,0.9c0.1,0.1,0.2,0.2,0.3,0.3c0.1,0.1,0.2,0.2,0.3,0.3c0.3,0.4,0.7,1,1.1,1.7
	c0.1,0.2,0.3,0.4,0.4,0.6c0.1,0.1,0.2,0.2,0.3,0.3c2.1,2.4,4.5-0.2,8.8-0.2c2.1,0,3.5,0,4.5-0.4c0.1,0,0.3-0.1,0.4-0.2
	c0.3-0.1,0.5-0.3,0.7-0.5c0.3-0.3,0.5-0.6,0.7-1c0-0.1,0.1-0.2,0.1-0.3c0.1-0.2,0.2-0.4,0.3-0.6s0.2-0.4,0.2-0.7
	c0.1-0.2,0.2-0.5,0.2-0.8c0.9-3.3,0.6-5.2,1.8-6.5c0,0,0.1-0.1,0.2-0.2c0.4-0.4,0.9-0.7,1.6-1.1c2.2-1.1,3.7-1.2,4.8-0.1
	c0.5,0.5,0.9,1.2,1.2,2.2c0.8,2.4,0.5,4.1,2.6,4.8c0.6,0.2,1.4,0.3,2.4,0.4c4.8,0.3,5.8,0,7.3,2.3c0.1,0.2,0.2,0.4,0.3,0.6
	c0.1,0.3,0.2,0.5,0.3,0.7c0,0.1,0,0.2,0.1,0.2c0.1,0.1,0.1,0.3,0.2,0.4c0,0.1,0,0.1,0.1,0.2c0.1,0.2,0.2,0.3,0.3,0.4
	c0.2,0.2,0.6,0.3,1.3,0.1c0.1,0,0.2,0,0.3-0.1c0.3-0.1,0.6-0.2,0.9-0.3c0.3-0.1,0.7-0.3,1.1-0.4c0,0,0,0,0,0
	c0.2-0.1,0.4-0.2,0.7-0.3c1.9-0.8,3.7-1.6,5.4-2.1c2-0.6,3.7-0.9,5.1-0.4c0.3,0.1,0.6,0.2,0.9,0.4c0.4,0.3,0.8,0.6,1.1,1
	c0.1,0.2,0.3,0.4,0.4,0.6c1,1.4,2,2.8,2.9,3.9c1,1.3,1.7,2.2,1.7,2.2c0,0,0,0,0,0s2.9,0.1,5.9-1.4c0.1-0.1,0.2-0.1,0.3-0.2
	c0.4-0.2,0.7-0.4,1-0.6c0.6-0.4,1.1-0.9,1.7-1.4c0.1-0.1,0.2-0.2,0.3-0.3c0.3-0.4,0.6-0.7,0.9-0.9c0.6-0.6,1.1-1,1.6-1.4
	c2.2-1.6,3.8-1.3,6-0.8c0.8,0.2,2.2,0,3.7-0.4l0,0.1l2.8,5.2c0,0,0.5,1.3,1,3.9c0.5,2.6,1,4.9-1.3,6.5c-2.3,1.5-5.3,3.9-5.3,3.9
	s-0.8,5.4-3.8,8.6c-3,3.1-3.5,3.1-4.5,5.2s-0.8,4.9-3.5,6.8s-3,2.9-3.5,4.1c-0.5,1.3-0.5,4.9-1.8,6.5c-1.3,1.6-5,3.9-7.8,2.9
	s-5,1.3-8,2.9s-6.5,2.6-9,4.7c-2.5,2.1-6,1-9,0.5s-4.8,2.1-5,3.1c-0.3,1-1.5,2.6-4.5,4.7c-3,2.1,0.5,3.1,0.8,5.7
	c0.3,2.6,2,2.3,5,3.4s3.3,1.6,4,3.6c0.8,2.1,0,2.9-2.5,5.2s-0.8,3.6,0.5,5.7s1.5,3.6,2,5.7s1.3,2.6,2.8,2.9c1.5,0.3,4.8,1,6.3,1.3
	c1.5,0.3,1,2.1-0.3,3.4c-1.3,1.3-1.5,1.8-3.5,2.1c-2,0.3-8.3,4.7-8.3,4.7s-1.8,1.8-3.3,3.4c-1.5,1.5,0,5.4,1.3,6.5
	c1.3,1,1.5,4.7,1.5,6c0,1.3,0.8,3.4,2.3,5.5c1.5,2.1,0.8,2.8,0,4.4s0.5,2.6,2,4.4c1.5,1.8,2.8-0.3,3.8-1.8s4-0.5,6-0.3
	c2,0.3,2.3,3.4,2.3,5.4s-1,5.2-3.8,7.3s-4.5,0.5-7,0.5s-1.8,1.3-1.3,2.3c0.5,1,1.8,5.5,2.8,7.8c1,2.3,1.5,2.6,4,3.1s2,6,0.5,8
	c-1.5,2.1,0.5,3.4,0.5,3.4s1.5,1.8,1.5,3.6c0,1.8,1.5,3.1,1.5,3.1s-3.3,2.1-5.3,2.3c-2,0.3-4.8,1-6.3,2.3s-1.5,3.9-4.3,4.2
	c-2.8,0.3-2.5,4.4-5.5,6.2c-3,1.8-3,7.3-6.8,9.1c-3.8,1.8-4.3,2.6-6,4.4c-1.8,1.8-13.5,10.1-16.3,11.2s-2.8,1.8-4.3,3.6
	c-1.5,1.8-4.5,3.1-7,3.6s-3,1.3-4,2.9c-1,1.6-3.3,2.1-7.8,2.1s-1.8,1.8,0,3.4c1.8,1.6,1.5,2.3,1,4.9c-0.5,2.6,0.5,3.1,1.3,5.2
	s-2.5,2.9-5.3,1.8c-2.8-1-5.5-0.3-7.5-0.3s-6.3,2.6-7.5,3.6s-2.8,2.6-5.8,2.6c-2.8,0-2.3,2.2-2.3,2.5l-0.9,0.3c-0.9-2.3-1.7-4.3-2-7
	l-3-31.4c-0.4-4.6-2.5-9.2-3.5-13.7c-0.7-3.6-0.7-7.6-1.6-11.2c-0.4-1.8-2-3.6-2.6-5.3c-0.4-1-0.1-2.6-0.4-3.6
	c-5.6-20.6-4.8-19.8-13.8-35.9c-0.1-0.2-1-1.1-1.2-1.3c-1.2,0.6-3.2-0.4-4.3-0.8c-2.5-3.9-5.7-7.3-10.5-8.1
	c-11.2-1.9-12-0.7-20.4-6.8c-1.6-1.1-3.8-1.7-5.7-2.2c-4.4-1.2-11.3-5.4-15.7-2.8c-1.5,0.9-2.6,2.6-4.5,2.9c-1,0.2-2.7-0.3-3.6-0.6
	c-5-1.7-3.7-2.6-6.5-6.5c-1.9-2.6-4.5-4.4-6.5-6.8c-2.8-3.4-2.7-10.8-3.3-14.8c-0.6-4-1.6-8.2-2.8-12l-5.3-16.5
	c-0.1-0.3-1.6-2-1.8-2.3c-2.5-4.2-2.1-4.5-6.2-6.9c-2.4-0.5-3,0.9-4,1c-1.7,0.2-3.8-0.1-5.4-0.1c-2.3,0.5-2.3,4.1-4.3,4.8l-1.4-0.2
	c-3.9-7.7-6.5-6.5-8.7-9.4c-4.5-5.9-9.1-11.7-13-18c-0.7-1.2-4.3-3.9-5.5-3.9c-0.5,0-3.3,0-3.6-0.1c-2.2-0.5-3.8-2.3-6.3-2.1
	c-2.2,0.2-5.1,0.8-7.4,0.7c-1.5-0.1-3.1-1.3-4.6-1.5c-5.3-0.7-10.2,0.3-15.4,1.2c-1.8,0.3-10.8-4.1-12.4-4.8
	c-1.4-0.6-3.5,0.6-4.7,0.9c-3.9,0.9-7.9,0.7-11.8,0.7c-3.2,0-8.3-9.9-10.7-12.5c-1.1-1.2-2.4-2-3.8-2.7c-5.6-2.9-5.4,0.2-10.8,0
	c-1.8-1.1-3.8-2.7-5.7-3.6c-1.4-0.7-3.5-0.7-4.8-1.4c-1.3-0.7-3-2.5-4.2-3.5c-1.8-0.8-3.4-1.8-5-2.3c-1.2-0.4-2.5-0.2-3.6,0.3
	c-6.4,2.5-4.3,6-7.8,8.4l-2.2-0.2c-2-1.8-4-4-6.1-5.6c-2.5-1.9-7.6-3.6-8-7.7c-0.7-7.2-1.1-14.7-2.2-21.8l-2.4-9.8
	c-0.5-1.9-0.6-3-1.2-4.9l-1.6-2.4c-4.3-6.4-13.9-7.6-20.6-9.4c-3.2-0.9-4.7-2.1-6.7-5c-4.6-0.5-8.5-4.7-12.4-6.8
	c-3.2-1.7-6.4-0.9-9.7-1.7c-3-0.7-4.7-2.6-8.3-2.2L0,53c2.9-3.8,4.3-5.4,5.1-7.2c0.4-0.7,0.6-1.5,0.9-2.5c0.2-0.6,0.4-1.4,0.6-2.2
	c0,0,0,0,0,0c0.2-0.6,0.3-1.4,0.5-2.2c0.1-0.5,0.3-1.1,0.4-1.8c0.1-0.3,0.1-0.6,0.2-1c0-0.1,0.3-0.6,0.8-1.2
	c0.9-1.2,2.3-3.1,2.6-3.6c0.1-0.2,0.2-0.4,0.2-0.6c0.1-0.4,0.3-0.9,0.4-1.4c0.3-1.2,0.6-2.4,0.9-3.4l6.8-5.8h0
	c0.1-0.2,0.2-0.4,0.3-0.6c0-0.2,0.1-0.4,0.1-0.6c0.1-0.6,0.1-1.3,0-2.1c0-0.5-0.1-1.1-0.1-1.6c0,0,0-0.1,0-0.1
	c-0.1-2.8-0.1-6,1.6-7.6C21.6,7,22,6.8,22.4,6.6c3.1,1.1,4.8,1,6.9,0.3c0.2-0.1,0.5-0.2,0.7-0.3c0,0,0,0,0,0
	c0.8-0.3,1.6-0.7,2.6-1.1c1-0.4,2.6-1.2,4.2-1.8c0.2-0.1,0.3-0.1,0.5-0.2c0.3-0.1,0.6-0.2,0.9-0.3c0.4-0.1,0.8-0.2,1.1-0.2
	c1.2,0,2,0,3,0.2c0.2,0,0.4,0.1,0.6,0.1c0.4,0.1,0.8,0.2,1.2,0.4c0.6,0.2,2,0.3,2.5,0.1c0.8-0.4,1.6-0.7,2.4-1.1
	c0.5-0.2,1-0.5,1.6-0.7c0.3-0.1,0.5-0.2,0.8-0.3c0.5-0.2,1-0.4,1.6-0.6c0,0,0,0,0,0c2.9-1,5.9-1.6,9.3-1c0.3,0.1,0.5,0.3,0.7,0.5
	c1.3,1.2,2,3.6,3.6,4.9c0.3,0.2,0.6,0.4,0.9,0.6c2,0.1,2.1,0.2,3.1-0.3c0,0,0,0,0,0c0.2-0.1,0.4-0.2,0.7-0.3C71.7,5.7,72.3,6,73,6.4
	c2,1.2,4.3,3.5,5.5,4.7c0.3-0.1,0.7-0.2,1.1-0.3c0.4-0.1,0.8-0.2,1.2-0.3c0.9-0.2,1.8-0.4,2.6-0.3C83.5,10.2,83.6,10.2,83.7,10.2z"
	/>
<path fill="#666666" stroke="#FF1D25" stroke-width="3" d="M470,295.6c6.1,0.9,11.3-2.3,16-2.2c4.3,0,6.8,3.3,11,3
	c5.7-0.4,10.2-6.4,13.7-13.1c2.5-4.9,14,3.4,18.8,3.1c3.3-0.3,5.5-3.5,10.4-4.4c5.2-7.2,8.9-12.3,16.7-11.9c3.4,0.2,5,2.8,7.6,1.6
	c3.4-1.6,9.6-12,13.4-15.5l0,0c1.7,1.3,4,3.1,5.1,3.7c1.8,1,2.3,1.6,4,1.3c1.8-0.3,4,1.6,5.5,2.6s7.8,4.4,7.8,4.4s4.3,0.3,6,0.3
	s2.3,1,2.3,1s3.5,3.1,4.3,4.4s3.5,3.1,4.5,3.9c1,0.8,1.8,1.3,2.3,2.8s2.5,2.6,2.5,2.6s0,2.6-0.3,3.6c-0.3,1-1,1.3-2.3,1.8
	s-3.5,2.9-3.8,4.4c-0.3,1.6-0.8,2.6-3,4.4c-2.3,1.8,0,3.4,2,4.1c2,0.8,5.3,6.5,5.3,6.5l0.3,3.9c0,0,2.3,1.5,3.5,3.1
	c1.3,1.6,1,3.6,1,3.6s0.5,1.3,2.8,2.6c2.3,1.3,1.5,1.6,0.8,4.2c-0.8,2.6-0.5,1.8,1.8,3.4c1.9,1.3,2.4,2.8,2.5,3.2
	c-1.2,0.3-2.3,0.9-3.2,1.2c-1.8,0.5-5.8,2.9-5.8,2.9s-6,0.3-9.3,0.3s-2.8,5.2-2.8,6.5c0,1.3-2.3,3.9-6,5.2s-3,4.9-3,8
	c0,3.1-4,4.4-5.3,5.2c-1.3,0.8-1.8,5.7-2.3,7.3c-0.5,1.6-1,3.6-2.8,4.9c-1.8,1.3-0.5,4.9,0,6.8c0.5,1.8,1.3,2.6,1.3,2.6
	s-1.8,1.5-3,2.3s-2,1-3.5,3.1c-1.5,2.1-2.5,4.7-4,5.7s-2,1.8-2.8,4.4c-0.8,2.6-1.8,3.4-3.3,4.7c-1.5,1.3-4.3,6-5.5,8
	c-1.3,2.1-6.5,12.2-7,13.5c-0.5,1.3-1.8,3.1-4.5,5.7c-2.8,2.6-5.3,8.3-6.5,9.6c-1.3,1.3-1.5,1.6,0,4.1c1.5,2.6,1.5,3.6,0.5,7
	c-1,3.4-0.3,5.5-0.3,6.5s0.8,3.6,2.8,5.5c2,1.8,1,3.9-1,5.7c-2,1.8-0.3,4.9-0.3,4.9s-0.8,1.6-1.8,2.6c-1,1-3,2.3-4.5,2.3
	s-4.3-0.3-5-2.1c-0.8-1.8-4.8-3.1-4.8-3.1s0,0.5,0,1.3l-0.3,0l-3,1.5c0,0-1.3,1.8-2.5,2.5s-3.8,0.8-5,0.8s-12.3-0.3-12.3-0.3
	s-0.3-2.8-0.3-4s-0.8-2.8-0.8-2.8s-2.3-1.8-3.3-2.3s-2.3-0.8-3.3-0.5s-7.5,0.2-7.5,0.2s-0.5-1.8-1-2.8s-3.5-2.5-5-2.5
	s-6,1.9-7.3,1.9s-3,0.9-3,0.9h-2.5l-2.8-1.9c0,0-2,0.4-3,0.6s-4.3-1.1-5-2.6s-3.8-1.8-3.8-1.8s-2-0.2-2,0.8s-2.3,3.9-2.3,3.9
	s-2.3,0.7-3.5,0.7s-5,1.5-5,1.5s-3.5,0-5.3-0.3s-2,0-3.3,1s-3.8,0.2-4.8,0.7s-3.5,1.3-5,0.3s-7.5-1.8-7.5-1.8l-2.3,2.3l-3.8,0.8
	l1.3,2.3c0,0,2.8,0.8,5,1s1.5,1.8,0.3,2s-3.8,0.8-5.3,0.3s-1.3,1.3-1.5,3s-2.3,1.3-3.5,1.3s-3.3,0.3-4.5,1s-4,1.5-4,1.5l3,8.8
	l-2.6,0.7c-0.5-1.2-0.9-2.4-1.4-3.6c-0.6-1.5-1.9-4.7-3.3-5.7l-7.7-5.6c-1.9-1.4-1.5-5.6-1.8-7.6c-0.2-1.4-0.9-3-1-4.4
	c0-0.3,0.6-3.3,0.7-3.7c-0.5-1-4.3-8.5-5.6-8.7c-0.4-1-1-3-0.8-4.2c6.3-4,2.2-19.1,0.6-24.8l-6.3-22.4c-3.2-11.2-8.5-10.3-11.7-15.5
	l-0.8-0.2c-0.2-0.4-0.3-0.9-0.5-1.3l0.9-0.3c-0.1-0.4-0.5-2.5,2.3-2.5c3,0,4.5-1.6,5.8-2.6c1.3-1,5.5-3.6,7.5-3.6s4.8-0.8,7.5,0.3
	c2.8,1,6,0.3,5.3-1.8s-1.8-2.6-1.3-5.2c0.5-2.6,0.8-3.4-1-4.9c-1.8-1.5-4.5-3.4,0-3.4s6.8-0.5,7.8-2.1c1-1.5,1.5-2.3,4-2.8
	c2.5-0.5,5.5-1.8,7-3.6c1.5-1.8,1.5-2.6,4.3-3.6s14.5-9.3,16.3-11.2c1.8-1.8,2.3-2.6,6-4.4c3.8-1.8,3.8-7.3,6.8-9.1
	c3-1.8,2.8-6,5.5-6.2c2.8-0.3,2.8-2.9,4.3-4.2s4.3-2.1,6.3-2.3c2-0.3,5.3-2.3,5.3-2.3s-1.5-1.3-1.5-3.1c0-1.8-1.5-3.6-1.5-3.6
	s-2-1.3-0.5-3.4L470,295.6z"/>
<path fill="#666666" stroke="#FF1D25" stroke-width="3" d="M757.8,200.9c0,0.1-0.1,0.3-0.1,0.5c-0.1-0.2-0.3-0.4-0.5-0.7
	c-0.4-0.1-0.9-0.3-1.2-0.4c-0.4-0.2-0.7-0.3-1-0.5c-0.2-0.1-0.3-0.2-0.5-0.3c-1.5-1-2.6-2.5-4.5-4.8c-0.4-0.5-0.7-0.9-1.1-1.2
	c-0.7-0.8-1.4-1.4-2.1-1.8c-0.3-0.2-0.7-0.4-1-0.6c-0.2-0.1-0.3-0.2-0.5-0.3c-1.2-0.5-2.4-0.7-3.7-0.7c-0.4,0-0.7-0.1-1.1-0.2
	c-0.1,0-0.2-0.1-0.3-0.1c-0.3-0.1-0.5-0.3-0.7-0.4c-0.2-0.1-0.3-0.2-0.5-0.4c-0.1-0.1-0.2-0.2-0.3-0.3c-0.1-0.1-0.2-0.2-0.3-0.3
	c-0.3-0.3-0.6-0.6-0.9-1c0,0,0,0,0,0c-0.1-0.1-0.2-0.2-0.2-0.2c-0.1-0.1-0.2-0.2-0.3-0.3c-0.1-0.1-0.2-0.2-0.2-0.2
	c-0.3-0.3-0.6-0.6-0.9-0.8c-0.1-0.1-0.3-0.2-0.4-0.3c-0.6-0.4-1.2-0.8-1.9-1c-0.1,0-0.2-0.1-0.4-0.1c-0.3-0.1-0.5-0.1-0.7-0.2
	c-1.5-0.5-2.4-1.2-2.8-2.1c-0.5-1-0.5-2.1-0.5-3.4c0-0.6-0.1-1.3-0.3-2c-0.4-1.4-1.3-2.8-2.2-4.2c-0.5-0.7-1-1.4-1.5-2
	c-0.2-0.2-0.3-0.5-0.4-0.7c-0.5-1.3,0.4-0.4,1.7-1.7c0.3-0.3,0.5,1.6,0.8,1.6c0,0,0,0,0,0c0.6-1,1.3-3.4,1.9-3.9
	c0.3-0.2,0.6-1.7,0.9-1.9c0.3-0.2,0.6-1.1,0.8-1.3c0.5-0.6,0.6-1.3,0.3-1.6c0,0,0-0.2,0-0.2c0,0-0.1-0.2-0.1-0.2
	c-0.6-0.6-1.9-1-2.9-1.5c-2-1-6-3.1-8.5-5.2c-0.9-0.8-2.4-1.5-4.1-2.1c-0.3-0.1-0.6-0.2-0.9-0.3c-0.3-0.1-0.6-0.2-0.9-0.3
	c-0.5-0.1-1-0.3-1.4-0.4c-0.2,0-0.4-0.1-0.6-0.1c-0.8-0.1-1.5-0.3-2.2-0.4c-0.9-0.1-1.7-0.2-2.4-0.2c-1.2,0-1.9-0.2-2.3-0.7
	c-0.2-0.2-0.3-0.4-0.4-0.7c0,0,0,0,0,0c-0.4-0.9-0.2-2.2-0.2-3.8c0-0.3-0.1-0.6-0.2-1c-0.1-0.3-0.2-0.6-0.4-0.9
	c-0.4-0.6-0.9,1-1.5,0.5c-1.8-1.4-4.4,0-6.4,1h0c-1.8,1-2.9-1.3-3.7-1.9c-0.7-0.6-1.1-3.2-1.3-5.5c-0.1-0.7-0.3-1.8-0.7-2.2
	c-0.2-0.2-0.3-0.6-0.5-0.7c-0.2-0.1-0.3-0.3-0.5-0.4c-0.1-0.1-0.3-0.2-0.4-0.2c-1.7-0.6-4.1-0.4-6.3,0.1c-0.2,0-0.4,0.1-0.6,0.1
	c-0.4,0.1-0.7,0.2-1.1,0.3c-1.1,0.3-2.1,0.6-2.9,0.9c-2.5,1-3.4,0.9-4.2,0.1c-0.1-0.1-0.2-0.3-0.3-0.4c0,0,0,0,0,0
	c-0.1-0.2-0.2-0.3-0.3-0.5c0,0,0,0,0,0c-0.1-0.2-0.3-0.4-0.4-0.6c-0.2-0.3-0.4-0.7-0.7-1.1c-0.8-1.2-2-1.8-3.3-2
	c-0.2-0.1-0.5-0.1-0.8-0.1c-2-0.2-4.3,0.1-5.9,0.1c-3,0-7.5,6.2-13,4.2c-0.5-0.2-0.9-0.3-1.3-0.4c-0.1,0-0.3-0.1-0.4-0.1
	c-0.1,0-0.1,0-0.2,0c-0.1,0-0.3,0-0.4,0c-0.3,0-0.6,0-0.8,0.1c-1.4,0.5-0.2,3,0.6,5.2l0,0c0.9,2.9,0.6,5.3-1.4,7.2
	c-0.2,0.2-0.4,0.4-0.6,0.5c-1.7,1.4-3.1,0.3-3.9-0.7c-0.1-0.1-0.2-0.3-0.3-0.4c-0.2-0.3-0.3-0.5-0.3-0.5l-4-2.8c0,0-3.5-2.1-6.2-3.1
	c-0.6-0.2-1.2-0.4-1.8-0.5c-0.3-0.1-0.6-0.2-0.9-0.3c-0.3-0.1-0.6-0.2-1-0.4c-2.3-1-5-2.6-8.4-2c-1.2,0.2-2.3,0-3.4-0.5
	c-0.2-0.1-0.5-0.2-0.7-0.3c-1.1-0.6-2.2-1.5-3.1-2.4c-1.2-1.1-2.1-2.3-2.5-3c0-0.1-0.1-0.1-0.1-0.2c-0.9-0.9-3.4-1.5-6.3-2.3
	c-1.6-0.4-3.3-0.9-4.9-1.4c-0.7-0.3-1.3-0.5-2-0.8c-1.7-0.8-2.8-1.5-3.5-2.1c-0.5-0.5-0.8-0.9-0.9-1.4c-0.3-0.8-0.2-1.8-0.1-2.9
	c0.2-2.4,0.9-3.3,0.2-5.5c-0.1-0.3-0.2-0.6-0.4-0.9c-0.1-0.2-0.2-0.4-0.3-0.5c-0.6-1.1-1.5-1.6-2.6-1.8c-0.1,0-0.3,0-0.5-0.1
	c-1.7-0.2-3.6,0.4-4.6,1.1c-0.1,0.1-0.3,0.2-0.4,0.3c-0.1,0.1-0.2,0.2-0.2,0.3c-0.8,1.3-3.5,1.3-7,1c-3.5-0.3-5.3,0.8-6.5,3.1
	c-0.9,1.7-1.7,3.9-3.6,4.9c-0.8,0.4-1.7,0.6-2.9,0.5c-3.2-0.2-5.5,1.4-8.1,2.8c-0.8,0.4-1.7,0.8-2.7,1.1c-1.5,0.5-3,0.6-4.3,0.3
	c-0.2,0-0.3-0.1-0.5-0.1c-0.1,0-0.2,0-0.2-0.1c-0.2-0.1-0.4-0.2-0.7-0.3c-0.6-0.3-1.2-0.7-1.6-1.2c-0.3-0.3-0.7-0.8-0.9-1.2
	c0,0,0,0,0,0c-0.3-0.5-0.5-1-0.6-1.5c0-0.1-0.1-0.2-0.1-0.3c0-0.1-0.1-0.2-0.1-0.3c-0.1-0.2-0.2-0.3-0.3-0.5
	c-1.3-1.5-4.2-1.5-6.7-0.9c-0.3,0.1-0.6,0.2-0.9,0.3c-0.2,0-0.3,0.1-0.5,0.2c-0.4,0.2-0.8,0.3-1.2,0.5c0,0,0,0,0,0
	c-0.5,0.3-0.9,0.5-1.2,0.8c-0.7,0.6-1.3,1.1-2,1.4c-1.4,0.7-2.8,0.7-4-0.1c-0.1,0-0.1-0.1-0.2-0.1c-0.6-0.3-1.7,2-3.1,2.3
	c-0.3,0.1-0.5,2.3-0.8,2.3c0,0,0,0,0,0c-0.3,0-0.5-1.9-0.8-1.8c-0.3,0.1-0.6-0.9-0.9-0.8c-0.3,0.1-0.6-0.3-0.9-0.3
	c-0.2,0-0.3-0.2-0.5-0.1c-0.3,0.1-0.6,0.1-0.9,0.1c0,0,0,2.2,0,2.2c-0.6,0.2-1.2,2.7-1.8,2.7h0c-0.3,0-0.6-2.1-0.8-2
	c0,0,0-1.1,0-1.1c0,0,0-0.5,0-0.5l0-0.2l2.8,5c0,0,0.5,1.2,1,3.8c0.5,2.6,1,4.9-1.3,6.5c-2.3,1.5-5.3,3.9-5.3,3.9s-0.8,5.4-3.8,8.6
	c-3,3.1-3.5,3.1-4.5,5.2s-0.8,4.9-3.5,6.7c-2.8,1.8-3,2.9-3.5,4.2c-0.5,1.3-0.5,4.9-1.8,6.5c-1.3,1.6-5,3.9-7.8,2.9
	c-2.8-1-5,1.3-8,2.9s-6.5,2.6-9,4.7c-2.5,2.1-6,1-9,0.5c-3-0.5-4.8,2.1-5,3.1c-0.3,1-1.5,2.6-4.5,4.7c-3,2.1,0.5,3.1,0.8,5.7
	c0.3,2.6,2,2.3,5,3.4c3,1,3.3,1.6,4,3.6c0.8,2.1,0,2.8-2.5,5.2s-0.8,3.6,0.5,5.7s1.5,3.6,2,5.7s1.3,2.6,2.8,2.9
	c1.5,0.3,4.8,1,6.3,1.3c1.5,0.3,1,2.1-0.3,3.4c-1.3,1.3-1.5,1.8-3.5,2.1c-2,0.3-8.3,4.7-8.3,4.7s-1.8,1.8-3.3,3.4
	c-1.5,1.6,0,5.5,1.3,6.5c1.3,1,1.5,4.7,1.5,6c0,1.3,0.8,3.4,2.3,5.4c1.5,2.1,0.8,2.8,0,4.4s0.5,2.6,2,4.4c1.5,1.8,2.8-0.3,3.8-1.8
	c1-1.6,4-0.5,6-0.3s2.3,3.4,2.3,5.5s-1,5.2-3.8,7.3s-4.5,0.5-7,0.5s-1.8,1.3-1.3,2.3c0.5,1,1.8,5.5,2.8,7.8c1,2.3,1.5,2.6,4,3.1
	c1.6,0.3,2,2.7,1.6,4.9l0.5-1.2c6.1,0.9,11.3-2.3,16-2.2c4.3,0,6.8,3.3,11,3c5.7-0.4,10.2-6.4,13.7-13.1c2.5-4.9,14,3.4,18.8,3.1
	c3.3-0.3,5.5-3.5,10.4-4.4c5.2-7.2,8.9-12.3,16.7-11.9c3.4,0.2,5,2.8,7.6,1.6c3.4-1.6,9.4-11.7,13.2-15.3c-1-0.8-1.7-1.3-1.7-1.3
	l-3.8-6c0,0-0.8-2.1,0.5-3.1c1.3-1,2.3-1,1.5-3.1s-0.8-3.1-0.8-3.1s2.3-3.4,3.3-4.7s0.8-4.1,0.8-4.1s1-1.6,2-2.6c1-1-0.5-1.3,4,1
	s8,0.5,8,0.5s4.3-3.9,6.5-2.3c2.3,1.6,3.3,1.3,3.8,0.3c0.5-1,0.8-1.8-0.5-2.6c-1.3-0.8-2.3-2.1-2.3-2.1s1.3-1.8,0.8-3.6
	c-0.5-1.8-1.8-4.2-0.8-5.5c1-1.3,2.3-2.3,2.3-2.3s1.3,0.8,3,0.5s2.5,0,3.8,0.5c1.3,0.5,9.8,4.7,11,5.4c1.3,0.8,1,1.3,1.8,2.3
	c0.8,1,2,0.8,3.8,0.8s3.5,0.5,4.5-0.8c1-1.3,8-1.8,9.5-1.5s2,1.5,4.5,2.3s4,0.8,5,2.1s3,3.9,5.3,3.1c2.3-0.8,7.8-2.9,9.5-2.3
	c1.8,0.5,5.5,0.8,5.5,0.8s1.5-0.3,2.3-1.3s6-6,6-6s1.3-0.8,2.8-0.5c1.5,0.3,2.5,0.3,3.3,1.6s3,2.6,4.5,2.6s3.5-0.3,5.3,1
	c1.8,1.3,1.5,1.6,3.8,1.6s4.5,1.3,5.3,2.3c0.8,1,0.5,2.3,1.3,3.4c0.8,1,2,1.3,3.5,0.3c1.5-1,2.8-2.9,4.3-0.8s3.8,1.3,5.5,0.8
	c1.8-0.5,3.3-2.3,4.8-2.3s8.8-0.5,11.5-0.5s3,0.8,2.8,2.3c-0.3,1.6-1.3,4.9,0.5,5.7c1.8,0.8,4-1,4.5-2.8c0.5-1.8-0.5-4.7,1-6
	c1.5-1.3,3-2.6,3.3-4.2c0.3-1.6,0.3-6,1.3-7c1-1-0.3-4.2,4-4.4s6.3-2.1,7-3.1C756.6,206.4,757.8,201.2,757.8,200.9
	C757.9,200.9,757.9,200.9,757.8,200.9z"/>
<path fill="#666666" stroke="#FF1D25" stroke-width="3" d="M914.5,281c0,0,0-0.6-0.1-1.4c0-0.6-0.1-1.3-0.3-2
	c-0.1-0.5-0.2-1-0.3-1.4c-0.1-0.3-0.2-0.6-0.3-0.8c-0.1-0.1-0.1-0.3-0.2-0.4c-0.5-0.9-1.2-1.8-2-2.7c-0.1-0.1-0.3-0.3-0.4-0.4
	c-0.9-0.9-2-1.8-3.4-2.7c-1.9-1.3-4.1-2.8-6.2-3.9c-0.6-0.3-1.2-0.6-1.8-0.8c-0.2-0.1-0.4-0.2-0.6-0.2c-0.2-0.1-0.3-0.1-0.5-0.2
	c-0.2,0-0.3-0.1-0.5-0.1c-0.7-0.2-2-0.5-3.6-1c-0.2-0.1-0.3-0.1-0.5-0.2s-0.4-0.1-0.5-0.2c-2.8-1-5.9-2.3-7.6-3.9
	c-0.6-0.5-1-1.1-1.1-1.6c-0.1-0.1-0.1-0.2-0.1-0.3c0-0.3-0.1-0.6-0.2-1c0-0.2-0.1-0.3-0.1-0.5c-0.3-0.7-0.7-1.4-1.1-1.9
	c-0.1-0.1-0.2-0.2-0.3-0.3c-1.1-1.1-2.6-1.5-3.8-0.5c-0.1,0.1-0.2,0.1-0.2,0.2c-0.1,0.1-0.2,0.2-0.2,0.3c-0.1,0.1-0.2,0.2-0.3,0.3
	c-1.2,1.1-2.9,0.7-4.3,0.3c-1.1-0.3-1.9-0.1-1.9-1.1c0,0,0,0,0,0s-0.2-0.4-0.7-1.2c-0.5-0.7-1.3-1.4-2.6-1.8c-0.5-0.1-1-0.2-1.7-0.2
	c-1.1,0-1.8,0-2.2-0.2c-0.4-0.1-0.6-0.3-0.7-0.6c-0.3-0.6,0.2-1.7,0.4-3.3c0.2-1.2,0.2-1.9,0-2.5c0,0,0,0,0,0
	c-0.3-0.9-1.1-1.3-2.2-2.4c-0.1-0.1-0.2-0.2-0.3-0.3c-0.1-0.1-0.3-0.3-0.4-0.4c-1.6-1.5-4.2-3.8-6-5.6c-0.7-0.7-1.2-1.3-1.6-1.8
	c-0.1-0.1-0.2-0.2-0.3-0.3c-0.1-0.1-0.2-0.2-0.3-0.3c-1.4-1.3-3.4-0.4-7,0.1c-0.8,0.1-1.8,0.1-2.8,0c-0.4,0-0.8-0.1-1.1-0.2
	c-0.5-0.1-1-0.2-1.5-0.4c-0.4-0.1-0.8-0.2-1.2-0.4c-2.1-0.7-4.1-1.8-5.2-2.8c-0.3-0.3-0.5-0.6-0.7-0.9c-0.3-0.5-0.6-0.9-0.9-1.2
	c-1.3-1.3-2.8-1-5.6-1.4c-0.5-0.1-0.9-0.1-1.5-0.2c-3.4-0.4-7.8-0.5-12.5-1.9c-0.2-0.1-0.4-0.1-0.6-0.2c-0.4-0.1-0.8-0.1-1.2-0.2
	c-4.3-0.3-6.5,3-9.2,4c-0.9,0.3-1.6,0.1-2.1-0.5c-0.5-0.5-0.9-1.2-1.3-2c-0.6-1.5-1.1-3.3-1.6-4.8c-0.1-0.4-0.3-0.7-0.5-1
	c-0.9,0.5-1.6,0.9-1.7,0.6c-4.6,7.2-8,12.9-8.4,21.1c-0.1,2.2,1,4.1-0.5,6.3l0,0c-2.7,3.8-5.7,3.7-8.8,6.5c-1.8,1.7-2.7,4.4-3.4,4.6
	c-1.8,0.6-2.9-0.2-4.8-0.4c-7.1-0.9-15.4,2.9-21.7,5.7c-6.6,2.9-0.6,11.3-2.7,15.6c-1.4,2.9-9.5,2-10.5,2.7c0,0,0,0,0,0
	c-7-6.3-11.3-3.7-18.1-4.9c-2-0.3-3.7-1.7-4.9-1.6c-7.3,0.8-13.2,14.3-19.3,15.1c-1.5,0.2-3-2.2-4.5-2.7c-1.7-0.5-7.5-1.1-9.8,0.9
	c-1.5,1.4,0,3.4-0.5,5.3c-1.7,5.9-11,5-13.1,4.1c-4.7-1.9-4.7-8.2-10.9-7.7c-1.8,0.1-7.8,6.3-13.9,9.8c-8.8,5-12.5,4-18.8,6
	c-0.2,0.7-0.7,1.4-1.3,2.1c-0.1-0.2,0.1,0.3,0.1,0.3l0.1,0.3l0.1,0.4l0.3,3.9c0,0,2.3,1.5,3.5,3.1c1.3,1.6,1,3.6,1,3.6
	s0.5,1.3,2.8,2.6c2.3,1.3,1.5,1.6,0.8,4.2c-0.8,2.6-0.5,1.8,1.8,3.4c1.9,1.3,2.4,2.8,2.5,3.2c1.1-0.3,2.3-0.4,3.3,0.4
	c2,1.6,1.8,2.1,0.3,3.6c-1.5,1.6-1.8,3.6-2.3,5.2s0,4.2,0,5.5s-0.3,6-0.3,6s2,1.3,2.3,2.9c0.3,1.6,1.3,5.5,1.5,6.8
	c0.3,1.3,1.3,1.8,1.3,1.8s6-2.1,9.3-2.3s5.3-2.6,5.3-2.6s0.3-2.8,1.5-3.9c1.3-1,5-4.1,6.3-4.9c1.3-0.8,2.8-1.3,4.3,0.3
	c1.5,1.6,3.8,3.4,3.8,3.4l0.8,2.6c0,0,2,0,2.8,1.3c0.8,1.3,1.8,1.8,2.8,1.3s7.3-2.6,7.3-2.6s-0.8-3.4,0.5-3.9s2.5,0.5,3.5,1
	s4.8,1.3,6.5,2.3s5.8,2.1,8,2.3c2.3,0.3,4.3,1.6,5.3,2.6c1,1,10.8,9.9,10.8,9.9s2.3,2.3,2.3,3.9c0,1.6,0.3,2.3-1.8,2.6
	c-2,0.3-6.8,1.3-5.3,5.2c1.5,3.9,3,7.5,6.3,6.2c3.3-1.3,6-2.1,9.3-0.5c3.3,1.6,7.3,2.3,7.5,4.7s3.8,3.6,7,2.9c3.3-0.8,4.3-1,5.5-2.3
	c1.3-1.3,2.5-2.8,5.3-0.8c2.8,2.1,4.3,1.3,5.8,0c1.5-1.3,4.8-3.6,7-3.6s4-1.8,4.8-3.1c0.8-1.3,5.8-5.5,7.3-8.6
	c1.5-3.1,2.5-3.4,4-3.9c1.5-0.5,4-0.5,4-0.5s-1.3-2.3,1-2.6c2.3-0.3,4.3-1.8,4.3-1.8l2-3.1h7.3c0,0,12.3,2.3,16.3,2.8s4.5,0.4,6,1.7
	c1.5,1.3,2,2.6,3.8,1.6c1.8-1,5-1.3,7-0.5c2,0.8,3.5,1.8,4.5,2.1s4.5,1.6,4.5,1.6s2.3-1.3,3.3-2.8c1-1.6,2-3.6,4.3-3.6
	s3.8,0.8,3.5,2.6c-0.3,1.8-1.5,3.1,0.3,3.1s4.8,0.5,6.3,1.6c1.5,1,4.5,1.6,6.5,1.1c0.2-0.1,0.4-0.1,0.5-0.1h1c0.4-1-0.2-3.2-0.2-3.2
	c-0.6,0.2-1.1,0.1-1.4-1.1c-0.5-2.6-0.3-4.4-0.3-6c0-1.4-0.4-4,2-3.5c0,0,2.2-2.5,2.2-6.4c0-3.9,0-6.5,1.3-9.6s0.5-4.9-0.3-6
	c-0.8-1-2.8-1.6-2-4.2c0.8-2.6,0-4.2-1.8-4.9c-1.8-0.8-2.5-4.7-1.5-5.7c1-1,3-5.2,6-5.7c3-0.5,5.8-4.1,6.5-6.2s1.3-3.9,4-4.4
	s9-2.9,10.8-4.4c1.8-1.6,2.3-2.6,3-4.4s1.3-5.7,1.3-5.7s5.3,0.5,8.3-0.8c3-1.3,7.3-2.6,7.3-2.6c0.1-0.4,0.4-1,0.8-1.5
	c0.9-1.3,2.2-2.6,2.2-2.6L914.5,281z"/>
<path fill="#666666" stroke="#FF1D25" stroke-width="3" d="M786.4,245.6c1.5-2.2,0.4-4.1,0.5-6.3c0.3-8.2,3.7-13.9,8.4-21.1
	c0.1,0.3,0.9-0.1,1.9-0.7c0,0-0.1-0.1-0.1-0.1c-0.3-0.4-0.7,1.3-1.2,1.1c-0.9-0.3-2,1.9-3.3,1.9h0c-0.7,0-1.5-1.6-2.3-1.5
	c-0.7,0.1-1.4-0.9-2.1-1c-2.7-0.5-5-2.8-7.4-4.1c-3-1.6-8-2.3-12.5-2.8c-0.3,0-0.6-0.2-0.9-0.3c-0.3-0.1-0.6-0.2-0.9-0.3
	c-0.9-0.3-1.4-0.8-1.8-1.3c-0.7-1.1-0.7-2.6-1-4c-0.2-0.8-0.4-1.5-0.7-2c-0.6-1-1.7-1.7-3.7-2.3c-0.3-0.1-0.6-0.2-1-0.3
	c-0.1,0-0.1,0-0.2,0c-0.1,0.3-1.3,5.5-2,6.5c-0.8,1-2.8,2.9-7,3.1s-3,3.4-4,4.4c-1,1-1,5.4-1.3,7c-0.3,1.6-1.8,2.9-3.3,4.2
	c-1.5,1.3-0.5,4.1-1,6c-0.5,1.8-2.8,3.6-4.5,2.8c-1.8-0.8-0.8-4.1-0.5-5.7c0.3-1.5,0-2.3-2.8-2.3s-10,0.5-11.5,0.5s-3,1.8-4.8,2.3
	c-1.8,0.5-4,1.3-5.5-0.8s-2.8-0.3-4.3,0.8c-1.5,1-2.8,0.8-3.5-0.3c-0.8-1-0.5-2.3-1.3-3.4c-0.8-1-3-2.3-5.3-2.3s-2-0.3-3.8-1.6
	c-1.8-1.3-3.8-1-5.3-1s-3.8-1.3-4.5-2.6s-1.8-1.3-3.3-1.6c-1.5-0.3-2.8,0.5-2.8,0.5s-5.3,4.9-6,6s-2.3,1.3-2.3,1.3s-3.8-0.3-5.5-0.8
	c-1.8-0.5-7.3,1.6-9.5,2.3c-2.3,0.8-4.3-1.8-5.3-3.1s-2.5-1.3-5-2.1s-3-2.1-4.5-2.3s-8.5,0.3-9.5,1.5c-1,1.3-2.8,0.8-4.5,0.8
	s-3,0.3-3.8-0.8c-0.8-1-0.5-1.5-1.8-2.3c-1.3-0.8-9.8-4.9-11-5.4c-1.3-0.5-2-0.8-3.8-0.5s-3-0.5-3-0.5s-1.3,1-2.3,2.3
	c-1,1.3,0.3,3.6,0.8,5.5c0.5,1.8-0.8,3.6-0.8,3.6s1,1.3,2.3,2.1c1.3,0.8,1,1.6,0.5,2.6c-0.5,1-1.5,1.3-3.8-0.3
	c-2.3-1.5-6.5,2.3-6.5,2.3s-3.5,1.8-8-0.5s-3-2.1-4-1c-1,1-2,2.6-2,2.6s0.3,2.8-0.8,4.1s-3.3,4.7-3.3,4.7s0,1,0.8,3.1
	s-0.3,2.1-1.5,3.1c-1.3,1-0.5,3.1-0.5,3.1l3.8,6c0,0,5.3,4.2,7,5.2c1.8,1,2.3,1.6,4,1.3c1.8-0.3,4,1.6,5.5,2.6s7.8,4.4,7.8,4.4
	s4.3,0.3,6,0.3s2.3,1,2.3,1s3.5,3.1,4.3,4.4s3.5,3.1,4.5,3.9c1,0.8,1.8,1.3,2.3,2.8s2.5,2.6,2.5,2.6s0,2.6-0.3,3.6
	c-0.3,1-1,1.3-2.3,1.8s-3.5,2.9-3.8,4.4c-0.3,1.6-0.8,2.6-3,4.4c-2.3,1.8,0,3.4,2,4.1c1.5,0.6,3.6,3.8,4.6,5.5
	c0.6-0.6,1-1.3,1.3-2.1c6.3-2,9.9-1,18.8-6c6.1-3.5,12.1-9.6,13.9-9.8c6.2-0.5,6.2,5.8,10.9,7.7c2.1,0.8,11.4,1.7,13.1-4.1
	c0.6-1.9-1-3.9,0.5-5.3c2.3-2.1,8.1-1.5,9.8-0.9c1.5,0.5,3.1,2.9,4.5,2.7c6.2-0.8,12-14.3,19.3-15.1c1.3-0.1,1,1.2,3,1.6
	c6.7,1.2,9.1-1.5,16.1,4.9c0,0,0,0,0,0c1-0.7,11,0.2,12.4-2.7c2.1-4.3-3-12.7,3.6-15.6c6.4-2.8,15.1-6.6,22.2-5.7
	c1.9,0.2,3.2,1.1,5.1,0.4c0.8-0.3,1.7-3,3.6-4.6C780.6,249.3,783.6,249.4,786.4,245.6"/>
</svg>
